<svg xmlns="http://www.w3.org/2000/svg" viewBox="0 0 48 48" id="icon-operating-environment"><path d="M35 25c5.523 0 10 4.477 10 10s-4.477 10-10 10-10-4.477-10-10 4.477-10 10-10Zm-2.5 4.67a1 1 0 0 0-.993.883l-.007.117v8.66a1 1 0 0 0 1.396.919l.104-.053 7.5-4.33a1 1 0 0 0 .098-1.668l-.098-.064-7.5-4.33a1 1 0 0 0-.5-.134ZM36 4a4 4 0 0 1 4 4v12a2 2 0 0 1-3.995.15L36 20V8H8v28h12a2 2 0 0 1 .15 3.995L20 40H8a4 4 0 0 1-4-4V8a4 4 0 0 1 4-4h28ZM18 29a2 2 0 1 1 0 4h-4a2 2 0 1 1 0-4h4Zm6-6a2 2 0 1 1 0 4H14a2 2 0 1 1 0-4h10Zm-6-6a2 2 0 1 1 0 4h-4a2 2 0 1 1 0-4h4Zm13-6a2 2 0 1 1 0 4H14a2 2 0 1 1 0-4h17Z" fill-rule="evenodd" /></svg>