<svg viewBox="0 0 16 16" xmlns="http://www.w3.org/2000/svg" xmlns:xlink="http://www.w3.org/1999/xlink" id="icon-algorithm-linkage">
    <path d="M13.3333333,6.66666667 C14.069713,6.66666667 14.6666667,7.26362033 14.6666667,8 L14.6666667,13.3333333 C14.6666667,14.069713 14.069713,14.6666667 13.3333333,14.6666667 L8,14.6666667 C7.26362033,14.6666667 6.66666667,14.069713 6.66666667,13.3333333 L6.66666667,8 C6.66666667,7.26362033 7.26362033,6.66666667 8,6.66666667 L13.3333333,6.66666667 Z M11.3737734,9.95955989 L10.9023689,10.4309644 C11.1366835,10.665279 11.160115,11.0306195 10.9726633,11.2911393 L10.9023689,11.3737734 L9.95955989,12.3165825 L9.90141268,12.3683867 C9.63973424,12.5756037 9.25850398,12.5583356 9.01675084,12.3165825 C8.78243627,12.0822679 8.75900481,11.7169274 8.94645647,11.4564076 L9.01675084,11.3737734 L9.48815536,10.9023689 L9.01675084,10.4309644 L8.54534632,10.9023689 C8.02464727,11.423068 8.02464727,12.267288 8.54534632,12.787987 C9.03133211,13.2739728 9.79914056,13.3063718 10.3227027,12.8851842 L10.4309644,12.787987 L11.3737734,11.845178 C11.8944725,11.3244789 11.8944725,10.4802589 11.3737734,9.95955989 Z M10.6666667,1.33333333 C11.4030463,1.33333333 12,1.930287 12,2.66666667 L11.9993333,5.99933333 L8,6 C6.9456382,6 6.08183488,6.81587779 6.00548574,7.85073766 L6,8 L5.99933333,11.9993333 L2.66666667,12 C1.930287,12 1.33333333,11.4030463 1.33333333,10.6666667 L1.33333333,2.66666667 C1.33333333,1.930287 1.930287,1.33333333 2.66666667,1.33333333 L10.6666667,1.33333333 Z M11.0106306,8.44814917 L10.9023689,8.54534632 L9.95955989,9.48815536 C9.4735741,9.97414115 9.44117505,10.7419496 9.86236273,11.2655117 L9.95955989,11.3737734 L10.4309644,10.9023689 C10.1966498,10.6680544 10.1732184,10.3027138 10.36067,10.042194 L10.4309644,9.95955989 L11.3737734,9.01675084 L11.4319207,8.9649466 C11.6935991,8.75772963 12.0748294,8.77499771 12.3165825,9.01675084 C12.5508971,9.25106542 12.5743285,9.61640597 12.3868769,9.87692573 L12.3165825,9.95955989 L11.845178,10.4309644 L12.3165825,10.9023689 L12.787987,10.4309644 C13.3086861,9.91026535 13.3086861,9.06604538 12.787987,8.54534632 C12.3020012,8.05936054 11.5341928,8.02696149 11.0106306,8.44814917 Z" id="icon-algorithm-linkage_形状结合" />
</svg>