<svg viewBox="0 0 16 16" xmlns="http://www.w3.org/2000/svg" xmlns:xlink="http://www.w3.org/1999/xlink" id="icon-picture-analysis">
    <path d="M12.6666667,2 L12.666,7.999 L11.2305519,8 C10.4076115,8 10.0688456,8.07909401 9.76524762,8.22835957 L9.68982096,8.2671327 C9.52032314,8.35778113 9.36979412,8.47046639 9.23982943,8.60359296 L5.33333333,6 L3.33333333,8 L3.33333333,11.3333333 L8.666,11.333 L8.66666667,12.1027815 C8.66666667,12.3228037 8.67232046,12.5082162 8.68345753,12.6676002 L2,12.6666667 L2,2 L12.6666667,2 Z M10,3.33333333 C9.26362033,3.33333333 8.66666667,3.930287 8.66666667,4.66666667 C8.66666667,5.40304633 9.26362033,6 10,6 C10.7363797,6 11.3333333,5.40304633 11.3333333,4.66666667 C11.3333333,3.930287 10.7363797,3.33333333 10,3.33333333 Z" id="icon-picture-analysis_形状结合" />
    <path d="M12.9574099,8.66666667 C13.5517557,8.66666667 13.7672799,8.72855041 13.9845638,8.84475514 C14.2018478,8.96095986 14.3723735,9.13148558 14.4885782,9.34876953 C14.6047829,9.56605348 14.6666667,9.78157764 14.6666667,10.3759235 L14.6666667,12.2907432 C14.6666667,12.885089 14.6047829,13.1006132 14.4885782,13.3178971 C14.3723735,13.5351811 14.2018478,13.7057068 13.9845638,13.8219115 C13.7672799,13.9381163 13.5517557,14 12.9574099,14 L11.0425901,14 C10.4482443,14 10.2327201,13.9381163 10.0154362,13.8219115 C9.79815225,13.7057068 9.62762653,13.5351811 9.5114218,13.3178971 C9.39521707,13.1006132 9.33333333,12.885089 9.33333333,12.2907432 L9.33333333,10.3759235 C9.33333333,9.78157764 9.39521707,9.56605348 9.5114218,9.34876953 C9.62762653,9.13148558 9.79815225,8.96095986 10.0154362,8.84475514 C10.2327201,8.72855041 10.4482443,8.66666667 11.0425901,8.66666667 L12.9574099,8.66666667 Z M11,10.6666667 L10.3333333,10.6666667 L10.3333333,13.3333333 L11,13.3333333 L11,10.6666667 Z M12.3333333,11.3333333 L11.6666667,11.3333333 L11.6666667,13.3333333 L12.3333333,13.3333333 L12.3333333,11.3333333 Z M13.6666667,9.33333333 L13,9.33333333 L13,13.3333333 L13.6666667,13.3333333 L13.6666667,9.33333333 Z" id="icon-picture-analysis_形状结合" />
</svg>