<svg viewBox="0 0 16 16" xmlns="http://www.w3.org/2000/svg" xmlns:xlink="http://www.w3.org/1999/xlink" id="icon-role-manage">
    <path d="M6.33333333,7.33333333 C6.87285931,7.33333333 7.38935595,7.42987006 7.86578667,7.6062635 C7.71809182,7.71371704 7.59924378,7.85122337 7.5114218,8.0154362 C7.39521707,8.23272015 7.33333333,8.44824431 7.33333333,9.04259013 L7.33333333,9.04259013 L7.33396185,13.2910099 C4.89133192,13.5010404 2,12.9293617 2,11.575974 C2,9.23282827 3.94009942,7.33333333 6.33333333,7.33333333 Z M6.33333333,2 C7.62199775,2 8.66666667,3.04466892 8.66666667,4.33333333 C8.66666667,5.62199775 7.62199775,6.66666667 6.33333333,6.66666667 C5.04466892,6.66666667 4,5.62199775 4,4.33333333 C4,3.04466892 5.04466892,2 6.33333333,2 Z" id="icon-role-manage_形状结合" />
    <path d="M12.9574099,8 C13.5517557,8 13.7672799,8.06188374 13.9845638,8.17808847 C14.2018478,8.2942932 14.3723735,8.46481891 14.4885782,8.68210286 C14.6047829,8.89938681 14.6666667,9.11491097 14.6666667,9.7092568 L14.6666667,12.9574099 C14.6666667,13.5517557 14.6047829,13.7672799 14.4885782,13.9845638 C14.3723735,14.2018478 14.2018478,14.3723735 13.9845638,14.4885782 C13.7672799,14.6047829 13.5517557,14.6666667 12.9574099,14.6666667 L9.7092568,14.6666667 C9.11491097,14.6666667 8.89938681,14.6047829 8.68210286,14.4885782 C8.46481891,14.3723735 8.2942932,14.2018478 8.17808847,13.9845638 C8.06188374,13.7672799 8,13.5517557 8,12.9574099 L8,9.7092568 C8,9.11491097 8.06188374,8.89938681 8.17808847,8.68210286 C8.2942932,8.46481891 8.46481891,8.2942932 8.68210286,8.17808847 C8.89938681,8.06188374 9.11491097,8 9.7092568,8 L12.9574099,8 Z M13.2189514,9.44771525 C12.6982524,8.92701619 11.8540324,8.92701619 11.3333333,9.44771525 L11.3333333,9.44771525 L11.2468504,9.54282997 C10.8862799,9.97959018 10.8464168,10.5921699 11.1272612,11.0678057 L11.1272612,11.0678057 L10.6264623,11.5687999 L10.6262266,11.5690356 L10.154822,12.0404401 L9.68388892,12.5113732 L9.21201299,12.9832492 L10.154822,13.9260582 L10.6262266,13.4546537 L10.154822,12.9823063 L10.6264623,12.5106661 L11.0976311,12.9832492 L11.5690356,12.5118446 L11.0973954,12.039733 L11.5991629,11.5395837 C12.1104108,11.841273 12.7797619,11.7725229 13.2189514,11.3333333 C13.7396505,10.8126343 13.7396505,9.96841431 13.2189514,9.44771525 Z" id="icon-role-manage_形状结合" />
</svg>