<svg viewBox="0 0 24 24" xmlns="http://www.w3.org/2000/svg" xmlns:xlink="http://www.w3.org/1999/xlink" id="icon-user-manage">
    <path d="M10.3410678,11.7426407 C14.2463107,11.7426407 17.4121356,14.9084656 17.4121356,18.8137085 C17.4121356,22.7189514 3.27,22.7189514 3.27,18.8137085 C3.27,14.9084656 6.43582489,11.7426407 10.3410678,11.7426407 Z M15.3410678,11.7426407 C18.4652621,11.7426407 20.9979221,14.2753006 20.9979221,17.3994949 C20.9979221,18.3827633 19.8772643,19.0565705 18.3413514,19.4209166 C18.388176,19.224567 18.4121356,19.0222363 18.4121356,18.8137085 C18.4121356,18.666679 18.4082042,18.5205678 18.4004406,18.3754742 C19.3907018,18.1080546 19.9979221,17.7342484 19.9979221,17.3994949 C19.9979221,14.9393192 18.0901987,12.9247161 15.673381,12.7543149 C15.2755327,12.4043428 14.8422795,12.0920885 14.3800106,11.8243789 C14.6915908,11.7705561 15.0130693,11.7426407 15.3410678,11.7426407 Z M15.3410678,4.5 C16.9979221,4.5 18.3410678,5.84314575 18.3410678,7.5 C18.3410678,9.15685425 16.9979221,10.5 15.3410678,10.5 C14.7871044,10.5 14.2682097,10.349853 13.8228597,10.088035 L13.8766017,10.0355339 C14.099922,9.81221367 14.3022154,9.56786665 14.4802576,9.30571728 C14.7405357,9.43018844 15.0326491,9.5 15.3410678,9.5 C16.4456373,9.5 17.3410678,8.6045695 17.3410678,7.5 C17.3410678,6.3954305 16.4456373,5.5 15.3410678,5.5 L15.2417074,5.50324567 C15.1732017,5.16460498 15.0704752,4.83837454 14.9372928,4.52831931 C15.0684664,4.50923413 15.2036887,4.5 15.3410678,4.5 Z M10.3410678,2.5 C12.5502068,2.5 14.3410678,4.290861 14.3410678,6.5 C14.3410678,8.709139 12.5502068,10.5 10.3410678,10.5 C8.13192881,10.5 6.34106781,8.709139 6.34106781,6.5 C6.34106781,4.290861 8.13192881,2.5 10.3410678,2.5 Z" id="icon-user-manage_形状结合" />
</svg>