<svg class="icon" viewBox="0 0 1024 1024" xmlns="http://www.w3.org/2000/svg" xmlns:xlink="http://www.w3.org/1999/xlink" id="icon-part-video-line"><defs><style type="text/css"></style></defs><path d="M896 170.666667a42.666667 42.666667 0 0 1 42.666667 42.666666v597.333334a42.666667 42.666667 0 0 1-42.666667 42.666666H128a42.666667 42.666667 0 0 1-42.666667-42.666666V213.333333a42.666667 42.666667 0 0 1 42.666667-42.666666h768z m-42.666667 256H170.666667v341.333333h682.666666v-341.333333zM213.333333 256H170.666667v85.333333h85.333333L213.333333 256z m213.333334 0H341.333333l42.666667 85.333333h85.333333l-42.666666-85.333333z m128 0l42.666666 85.333333h85.333334l-42.666667-85.333333h-85.333333z m256 85.333333h42.666666V256h-85.333333l42.666667 85.333333z m-351.701334 147.370667l150.528 90.325333a21.333333 21.333333 0 0 1 0 36.608l-150.528 90.325334a21.333333 21.333333 0 0 1-32.298666-18.346667v-180.608a21.333333 21.333333 0 0 1 32.298666-18.304z" p-id="7739" /></svg>