<svg viewBox="0 0 24 24" xmlns="http://www.w3.org/2000/svg" xmlns:xlink="http://www.w3.org/1999/xlink" id="icon-file-analysis">
    <path d="M8.17157288,5 C8.70200585,5 9.21071368,5.21071368 9.58578644,5.58578644 L10.4142136,6.41421356 C10.7892863,6.78928632 11.2979941,7 11.8284271,7 L21,7 L21.0013875,12.1982388 C20.6071073,12.0680161 20.0888203,12 19.1541722,12 L19.1541722,12 L16.8458278,12 C15.5085497,12 15.0236203,12.1392384 14.5347314,12.4006991 C14.0458426,12.6621597 13.6621597,13.0458426 13.4006991,13.5347314 C13.1392384,14.0236203 13,14.5085497 13,15.8458278 L13,15.8458278 L13,18.1541722 C13,18.484046 13.0084725,18.7620554 13.0251621,19.0010534 L2,19 L2,5 L8.17157288,5 Z M2,9 L21,9 L21,10 L2,10 L2,9 Z" id="icon-file-analysis_形状结合" />
    <path d="M19.4361148,13 C20.3276335,13 20.6509198,13.0928256 20.9768457,13.2671327 C21.3027716,13.4414398 21.5585602,13.6972284 21.7328673,14.0231543 C21.9071744,14.3490802 22,14.6723665 22,15.5638852 L22,18.4361148 C22,19.3276335 21.9071744,19.6509198 21.7328673,19.9768457 C21.5585602,20.3027716 21.3027716,20.5585602 20.9768457,20.7328673 C20.6509198,20.9071744 20.3276335,21 19.4361148,21 L16.5638852,21 C15.6723665,21 15.3490802,20.9071744 15.0231543,20.7328673 C14.6972284,20.5585602 14.4414398,20.3027716 14.2671327,19.9768457 C14.0928256,19.6509198 14,19.3276335 14,18.4361148 L14,15.5638852 C14,14.6723665 14.0928256,14.3490802 14.2671327,14.0231543 C14.4414398,13.6972284 14.6972284,13.4414398 15.0231543,13.2671327 C15.3490802,13.0928256 15.6723665,13 16.5638852,13 L19.4361148,13 Z M16.5,16 L15.5,16 L15.5,20 L16.5,20 L16.5,16 Z M18.5,17 L17.5,17 L17.5,20 L18.5,20 L18.5,17 Z M20.5,14 L19.5,14 L19.5,20 L20.5,20 L20.5,14 Z" id="icon-file-analysis_形状结合" />

</svg>