<svg viewBox="0 0 24 24" xmlns="http://www.w3.org/2000/svg" xmlns:xlink="http://www.w3.org/1999/xlink" id="icon-system-command">
    <path d="M21,8 L21,18 C21,19.1045695 20.1045695,20 19,20 L5,20 C3.8954305,20 3,19.1045695 3,18 L3,8 L21,8 Z M12.8982343,10.0702194 L10.1620731,17.5877604 L11.1017657,17.9297806 L13.8379269,10.4122396 L12.8982343,10.0702194 Z M7.5,10.4644661 L3.96446609,14 L7.5,17.5355339 L8.20710678,16.8284271 L5.37867966,14 L8.20710678,11.1715729 L7.5,10.4644661 Z M16.5,10.4644661 L15.7928932,11.1715729 L18.6213203,14 L15.7928932,16.8284271 L16.5,17.5355339 L20.0355339,14 L16.5,10.4644661 Z M19,4 C20.1045695,4 21,4.8954305 21,6 L21,7 L3,7 L3,6 C3,4.8954305 3.8954305,4 5,4 L19,4 Z" id="icon-system-command_形状结合" />
</svg>