<svg class="icon" viewBox="0 0 1024 1024" xmlns="http://www.w3.org/2000/svg" xmlns:xlink="http://www.w3.org/1999/xlink" id="icon-camera-line"><defs><style type="text/css"></style></defs><path d="M938.666667 298.666667v512a42.666667 42.666667 0 0 1-42.666667 42.666666H128a42.666667 42.666667 0 0 1-42.666667-42.666666V298.666667h853.333334z m-85.333334 85.333333H170.666667v384h682.666666V384z m-341.333333 42.666667a149.333333 149.333333 0 1 1 0 298.666666 149.333333 149.333333 0 0 1 0-298.666666z m128-256a42.666667 42.666667 0 0 1 42.666667 42.666666v42.666667H341.333333V213.333333a42.666667 42.666667 0 0 1 42.666667-42.666666h256z" p-id="5799" /></svg>