<svg viewBox="0 0 12 12" xmlns="http://www.w3.org/2000/svg" xmlns:xlink="http://www.w3.org/1999/xlink" id="icon-camera-fill">
    <path d="M11,3.5 L11,9.5 C11,9.77614237 10.7761424,10 10.5,10 L1.5,10 C1.22385763,10 1,9.77614237 1,9.5 L1,3.5 L11,3.5 Z M6,5 C5.03350169,5 4.25,5.78350169 4.25,6.75 C4.25,7.71649831 5.03350169,8.5 6,8.5 C6.96649831,8.5 7.75,7.71649831 7.75,6.75 C7.75,5.78350169 6.96649831,5 6,5 Z M6,6 C6.41421356,6 6.75,6.33578644 6.75,6.75 C6.75,7.16421356 6.41421356,7.5 6,7.5 C5.58578644,7.5 5.25,7.16421356 5.25,6.75 C5.25,6.33578644 5.58578644,6 6,6 Z M7.5,2 C7.77614237,2 8,2.22385763 8,2.5 L8,3 L4,3 L4,2.5 C4,2.22385763 4.22385763,2 4.5,2 L7.5,2 Z" id="icon-camera-fill_camera" />
</svg>