<svg viewBox="0 0 12 12" xmlns="http://www.w3.org/2000/svg" xmlns:xlink="http://www.w3.org/1999/xlink" id="icon-cpu">
    <path d="M5.25,10 L5.25,10.75 C5.25,10.8880712 5.13807119,11 5,11 C4.86192881,11 4.75,10.8880712 4.75,10.75 L4.75,10.75 L4.75,10 L5.25,10 Z M4.25,10 L4.25,10.75 C4.25,10.8880712 4.13807119,11 4,11 C3.86192881,11 3.75,10.8880712 3.75,10.75 L3.75,10.75 L3.75,10 L4.25,10 Z M6.25,10 L6.25,10.75 C6.25,10.8880712 6.13807119,11 6,11 C5.86192881,11 5.75,10.8880712 5.75,10.75 L5.75,10.75 L5.75,10 L6.25,10 Z M7.25,10 L7.25,10.75 C7.25,10.8880712 7.13807119,11 7,11 C6.86192881,11 6.75,10.8880712 6.75,10.75 L6.75,10.75 L6.75,10 L7.25,10 Z M8.25,10 L8.25,10.75 C8.25,10.8880712 8.13807119,11 8,11 C7.86192881,11 7.75,10.8880712 7.75,10.75 L7.75,10.75 L7.75,10 L8.25,10 Z M7.5770861,2.5 C8.24572515,2.5 8.48818983,2.56961921 8.73263428,2.70034953 C8.97707872,2.83107985 9.16892015,3.02292128 9.29965047,3.26736572 C9.43038079,3.51181017 9.5,3.75427485 9.5,4.4229139 L9.5,7.5770861 C9.5,8.24572515 9.43038079,8.48818983 9.29965047,8.73263428 C9.16892015,8.97707872 8.97707872,9.16892015 8.73263428,9.29965047 C8.48818983,9.43038079 8.24572515,9.5 7.5770861,9.5 L4.4229139,9.5 C3.75427485,9.5 3.51181017,9.43038079 3.26736572,9.29965047 C3.02292128,9.16892015 2.83107985,8.97707872 2.70034953,8.73263428 C2.56961921,8.48818983 2.5,8.24572515 2.5,7.5770861 L2.5,4.4229139 C2.5,3.75427485 2.56961921,3.51181017 2.70034953,3.26736572 C2.83107985,3.02292128 3.02292128,2.83107985 3.26736572,2.70034953 C3.51181017,2.56961921 3.75427485,2.5 4.4229139,2.5 L7.5770861,2.5 Z M10.75,7.75 C10.8880712,7.75 11,7.86192881 11,8 C11,8.13807119 10.8880712,8.25 10.75,8.25 L10,8.25 L10,7.75 L10.75,7.75 Z M2,7.75 L2,8.25 L1.25,8.25 C1.11192881,8.25 1,8.13807119 1,8 C1,7.86192881 1.11192881,7.75 1.25,7.75 L1.25,7.75 L2,7.75 Z M10.75,6.75 C10.8880712,6.75 11,6.86192881 11,7 C11,7.13807119 10.8880712,7.25 10.75,7.25 L10,7.25 L10,6.75 L10.75,6.75 Z M2,6.75 L2,7.25 L1.25,7.25 C1.11192881,7.25 1,7.13807119 1,7 C1,6.86192881 1.11192881,6.75 1.25,6.75 L1.25,6.75 L2,6.75 Z M10.75,5.75 C10.8880712,5.75 11,5.86192881 11,6 C11,6.13807119 10.8880712,6.25 10.75,6.25 L10,6.25 L10,5.75 L10.75,5.75 Z M2,5.75 L2,6.25 L1.25,6.25 C1.11192881,6.25 1,6.13807119 1,6 C1,5.86192881 1.11192881,5.75 1.25,5.75 L1.25,5.75 L2,5.75 Z M10.75,4.75 C10.8880712,4.75 11,4.86192881 11,5 C11,5.13807119 10.8880712,5.25 10.75,5.25 L10,5.25 L10,4.75 L10.75,4.75 Z M2,4.75 L2,5.25 L1.25,5.25 C1.11192881,5.25 1,5.13807119 1,5 C1,4.86192881 1.11192881,4.75 1.25,4.75 L1.25,4.75 L2,4.75 Z M10.75,3.75 C10.8880712,3.75 11,3.86192881 11,4 C11,4.13807119 10.8880712,4.25 10.75,4.25 L10,4.25 L10,3.75 L10.75,3.75 Z M2,3.75 L2,4.25 L1.25,4.25 C1.11192881,4.25 1,4.13807119 1,4 C1,3.86192881 1.11192881,3.75 1.25,3.75 L1.25,3.75 L2,3.75 Z M5,1 C5.13807119,1 5.25,1.11192881 5.25,1.25 L5.25,2 L4.75,2 L4.75,1.25 C4.75,1.11192881 4.86192881,1 5,1 Z M4,1 C4.13807119,1 4.25,1.11192881 4.25,1.25 L4.25,2 L3.75,2 L3.75,1.25 C3.75,1.11192881 3.86192881,1 4,1 Z M6,1 C6.13807119,1 6.25,1.11192881 6.25,1.25 L6.25,2 L5.75,2 L5.75,1.25 C5.75,1.11192881 5.86192881,1 6,1 Z M7,1 C7.13807119,1 7.25,1.11192881 7.25,1.25 L7.25,2 L6.75,2 L6.75,1.25 C6.75,1.11192881 6.86192881,1 7,1 Z M8,1 C8.13807119,1 8.25,1.11192881 8.25,1.25 L8.25,2 L7.75,2 L7.75,1.25 C7.75,1.11192881 7.86192881,1 8,1 Z" id="icon-cpu_形状结合" />
</svg>