<svg viewBox="0 0 12 12" xmlns="http://www.w3.org/2000/svg" xmlns:xlink="http://www.w3.org/1999/xlink" id="icon-disk">
    <path d="M8.0770861,1 C8.74572515,1 8.98818983,1.06961921 9.23263428,1.20034953 C9.47707872,1.33107985 9.66892015,1.52292128 9.79965047,1.76736572 C9.93038079,2.01181017 10,2.25427485 10,2.9229139 L10,9.0770861 C10,9.74572515 9.93038079,9.98818983 9.79965047,10.2326343 C9.66892015,10.4770787 9.47707872,10.6689202 9.23263428,10.7996505 C8.98818983,10.9303808 8.74572515,11 8.0770861,11 L3.9229139,11 C3.25427485,11 3.01181017,10.9303808 2.76736572,10.7996505 C2.52292128,10.6689202 2.33107985,10.4770787 2.20034953,10.2326343 C2.06961921,9.98818983 2,9.74572515 2,9.0770861 L2,2.9229139 C2,2.25427485 2.06961921,2.01181017 2.20034953,1.76736572 C2.33107985,1.52292128 2.52292128,1.33107985 2.76736572,1.20034953 C3.01181017,1.06961921 3.25427485,1 3.9229139,1 L8.0770861,1 Z M5.81348879,2.52743411 L5.12534163,4.65727429 C4.17599521,5.0118664 3.5,5.92698963 3.5,7 C3.5,8.38071187 4.61928813,9.5 6,9.5 C7.38071187,9.5 8.5,8.38071187 8.5,7 C8.5,6.44452021 8.31883584,5.93135359 8.01236922,5.51636183 L9.0339061,4.38674292 C9.08111936,4.33448136 9.1226794,4.27737823 9.15789432,4.2163842 C9.4340367,3.73809157 9.27016154,3.12650117 8.79186892,2.85035879 L7.26505506,1.9688524 C7.20406103,1.93363748 7.13951741,1.90496474 7.07249875,1.88331153 C6.54696321,1.71351507 5.98328525,2.00189857 5.81348879,2.52743411 Z M6.91877691,2.35909467 C6.95228624,2.36992127 6.98455805,2.38425764 7.01505506,2.4018651 L8.54186892,3.28337149 C8.78101523,3.42144268 8.86295281,3.72723788 8.72488162,3.9663842 C8.70727416,3.99688121 8.68649414,4.02543278 8.66288751,4.05156356 L5.84263234,7.17337602 C5.65751789,7.37828393 5.34134229,7.39432971 5.13643438,7.20921526 C4.99034495,7.0772376 4.93530227,6.87181554 4.99583061,6.68447482 L6.28927192,2.68115596 C6.37417016,2.41838819 6.65600914,2.27419644 6.91877691,2.35909467 Z" id="icon-disk_形状结合" />
</svg>