<svg class="icon" viewBox="0 0 1024 1024" xmlns="http://www.w3.org/2000/svg" xmlns:xlink="http://www.w3.org/1999/xlink" id="icon-face-line"><defs><style type="text/css"></style></defs><path d="M938.581333 597.333333v26.496l-0.426666 24.746667-0.896 22.229333c-2.816 52.778667-9.813333 84.608-20.650667 111.36l-4.565333 10.410667-4.949334 10.112-2.602666 5.034667a232.618667 232.618667 0 0 1-96.768 96.768l-5.034667 2.602666-10.112 4.949334-10.453333 4.565333c-24.917333 10.112-54.314667 16.896-101.034667 20.053333l-21.12 1.109334a983.466667 983.466667 0 0 1-11.392 0.384l-24.746667 0.426666c-4.309333 0.085333-8.789333 0.085333-13.354666 0.085334H597.333333v-85.333334H640.469333l5.674667-0.085333 20.992-0.512c35.584-1.408 57.728-5.376 75.648-11.776l5.248-1.962667 9.173333-4.010666a155.093333 155.093333 0 0 0 73.344-68.992l2.261334-4.352 2.176-4.437334 4.010666-9.173333c6.826667-17.152 11.306667-37.632 13.226667-70.613333l0.512-10.24 0.512-21.034667 0.085333-11.605333V597.333333h85.248zM170.666667 597.333333v43.093334l0.085333 5.717333 0.512 20.992c1.408 35.584 5.376 57.728 11.776 75.648l1.962667 5.248 4.010666 9.173333a155.093333 155.093333 0 0 0 68.992 73.344l4.352 2.261334 4.437334 2.176 9.173333 4.010666c17.152 6.826667 37.632 11.306667 70.613333 13.226667l10.24 0.512 21.034667 0.512 11.605333 0.085333H426.666667v85.248h-26.496l-24.746667-0.426666-22.229333-0.896c-52.778667-2.816-84.608-9.813333-111.36-20.650667l-10.410667-4.565333-10.112-4.949334-5.034667-2.602666a232.618667 232.618667 0 0 1-96.768-96.768l-2.602666-5.034667-4.949334-10.112-4.565333-10.453333c-10.112-24.917333-16.896-54.314667-20.053333-101.034667l-1.109334-21.12a983.424 983.424 0 0 1-0.384-11.392l-0.426666-24.746667L85.333333 597.333333H170.666667z m476.032-8.106666a42.666667 42.666667 0 0 1 31.146666 47.36l-0.981333 4.906666a170.752 170.752 0 0 1-328.362667 4.906667l-1.365333-4.906667-0.981333-4.864a42.666667 42.666667 0 0 1 83.541333-16.810666 85.333333 85.333333 0 0 0 164.693333 0v-0.426667a42.666667 42.666667 0 0 1 52.309334-30.122667zM384 341.333333a42.666667 42.666667 0 0 1 42.666667 42.666667v85.333333a42.666667 42.666667 0 0 1-85.333334 0V384a42.666667 42.666667 0 0 1 42.666667-42.666667z m256 0a42.666667 42.666667 0 0 1 42.666667 42.666667v85.333333a42.666667 42.666667 0 0 1-85.333334 0V384a42.666667 42.666667 0 0 1 42.666667-42.666667z m-16.170667-255.957333l24.746667 0.469333 22.229333 0.896c52.778667 2.816 84.608 9.813333 111.36 20.650667l10.410667 4.565333 10.112 4.949334 5.034667 2.602666a232.618667 232.618667 0 0 1 96.768 96.768l2.602666 5.034667 4.949334 10.112 4.565333 10.453333c10.112 24.917333 16.896 54.314667 20.053333 101.034667l1.109334 21.12 0.384 11.392 0.426666 24.746667c0.085333 4.309333 0.085333 8.789333 0.085334 13.354666V426.666667h-85.333334V383.530667l-0.085333-5.674667-0.512-20.992c-1.408-35.584-5.376-57.728-11.776-75.648l-1.962667-5.248-4.010666-9.173333a201.685333 201.685333 0 0 0-4.437334-8.832 155.093333 155.093333 0 0 0-64.512-64.512l-4.394666-2.261334-4.437334-2.176-9.173333-4.010666c-17.152-6.826667-37.632-11.306667-70.613333-13.226667l-10.24-0.512-21.034667-0.512L597.333333 170.666667v-85.333334h26.496z m-197.162666 0V170.666667H383.573333l-5.717333 0.085333-20.992 0.512c-35.584 1.408-57.728 5.376-75.648 11.776l-5.248 1.962667-9.173333 4.010666a155.093333 155.093333 0 0 0-73.344 68.992l-2.261334 4.352-2.176 4.437334-4.010666 9.173333c-6.826667 17.152-11.306667 37.632-13.226667 70.613333l-0.512 10.24-0.512 21.034667L170.666667 426.666667h-85.333334v-26.496l0.469334-24.746667 0.896-22.229333c2.816-52.778667 9.813333-84.608 20.650666-111.36l4.565334-10.410667 4.949333-10.112 2.602667-5.034667A232.618667 232.618667 0 0 1 216.32 119.509333l5.034667-2.602666 10.112-4.949334 10.453333-4.565333c24.917333-10.112 54.314667-16.896 101.034667-20.053333l21.12-1.109334 11.392-0.384 24.746666-0.426666L426.666667 85.333333z" p-id="6145" /></svg>