<svg viewBox="0 0 16 16" xmlns="http://www.w3.org/2000/svg" xmlns:xlink="http://www.w3.org/1999/xlink" id="icon-master">
    <path d="M12,2 C12.7363797,2 13.3333333,2.59695367 13.3333333,3.33333333 L13.3333333,6 C13.3333333,6.73637967 12.7363797,7.33333333 12,7.33333333 L4,7.33333333 C3.26362033,7.33333333 2.66666667,6.73637967 2.66666667,6 L2.66666667,3.33333333 C2.66666667,2.59695367 3.26362033,2 4,2 L12,2 Z M4.66666667,4 C4.29847683,4 4,4.29847683 4,4.66666667 C4,5.0348565 4.29847683,5.33333333 4.66666667,5.33333333 C5.0348565,5.33333333 5.33333333,5.0348565 5.33333333,4.66666667 C5.33333333,4.29847683 5.0348565,4 4.66666667,4 Z M8,4 L6.66666667,4 C6.29847683,4 6,4.29847683 6,4.66666667 C6,5.0348565 6.29847683,5.33333333 6.66666667,5.33333333 L6.66666667,5.33333333 L8,5.33333333 C8.36818983,5.33333333 8.66666667,5.0348565 8.66666667,4.66666667 C8.66666667,4.29847683 8.36818983,4 8,4 L8,4 Z" id="icon-master_形状结合" />
    <path d="M12,8.66666667 C12.7363797,8.66666667 13.3333333,9.26362033 13.3333333,10 L13.3333333,12.6666667 C13.3333333,13.4030463 12.7363797,14 12,14 L4,14 C3.26362033,14 2.66666667,13.4030463 2.66666667,12.6666667 L2.66666667,10 C2.66666667,9.26362033 3.26362033,8.66666667 4,8.66666667 L12,8.66666667 Z M4.66666667,10.6666667 C4.29847683,10.6666667 4,10.9651435 4,11.3333333 C4,11.7015232 4.29847683,12 4.66666667,12 C5.0348565,12 5.33333333,11.7015232 5.33333333,11.3333333 C5.33333333,10.9651435 5.0348565,10.6666667 4.66666667,10.6666667 Z M8,10.6666667 L6.66666667,10.6666667 C6.29847683,10.6666667 6,10.9651435 6,11.3333333 C6,11.7015232 6.29847683,12 6.66666667,12 L6.66666667,12 L8,12 C8.36818983,12 8.66666667,11.7015232 8.66666667,11.3333333 C8.66666667,10.9651435 8.36818983,10.6666667 8,10.6666667 L8,10.6666667 Z" id="icon-master_形状结合" />
</svg>