<?xml-model href="other.dtd"?>
<svg viewBox="0 0 12 12" xmlns="http://www.w3.org/2000/svg" xmlns:xlink="http://www.w3.org/1999/xlink" id="icon-other">
    <path d="M3.30243378,1.50081377 L8.5770861,1.5 C9.16214527,1.5 9.42091469,1.55330221 9.64022417,1.65420686 L9.73263428,1.70034953 C9.97707872,1.83107985 10.1689202,2.02292128 10.2996505,2.26736572 L10.3457931,2.35977583 C10.4466978,2.57908531 10.5,2.83785473 10.5,3.4229139 L10.5,8.5770861 C10.5,9.16214527 10.4466978,9.42091469 10.3457931,9.64022417 L10.2996505,9.73263428 C10.1689202,9.97707872 9.97707872,10.1689202 9.73263428,10.2996505 L9.64022417,10.3457931 C9.42091469,10.4466978 9.16214527,10.5 8.5770861,10.5 L3.4229139,10.5 C2.83785473,10.5 2.57908531,10.4466978 2.35977583,10.3457931 L2.26736572,10.2996505 C2.02292128,10.1689202 1.83107985,9.97707872 1.70034953,9.73263428 L1.65420686,9.64022417 C1.56050968,9.43657965 1.50785747,9.19891101 1.50081377,8.69756622 L1.5,3.4229139 C1.5,2.83785473 1.55330221,2.57908531 1.65420686,2.35977583 L1.70034953,2.26736572 C1.83107985,2.02292128 2.02292128,1.83107985 2.26736572,1.70034953 L2.35977583,1.65420686 C2.56342035,1.56050968 2.80108899,1.50785747 3.30243378,1.50081377 Z M8.67019122,2.50033782 L3.32980878,2.50033782 L3.17237876,2.50315306 L3.04825789,2.5090715 C2.9387658,2.51664168 2.87012133,2.52931736 2.81497624,2.54845062 L2.76331803,2.56978649 C2.75512066,2.57371792 2.74704505,2.57784125 2.73896458,2.58216273 C2.66878861,2.61969325 2.61969325,2.66878861 2.58216273,2.73896458 L2.56978649,2.76331803 L2.54845062,2.81497624 C2.53250623,2.86093048 2.52104628,2.91625929 2.51328831,2.9967892 L2.5057056,3.10653452 L2.50137632,3.24655029 L2.5,3.4229139 L2.50033782,8.67019122 L2.50315306,8.82762124 L2.5090715,8.95174211 C2.51664168,9.0612342 2.52931736,9.12987867 2.54845062,9.18502376 L2.56978649,9.23668197 C2.57371792,9.24487934 2.57784125,9.25295495 2.58216273,9.26103542 C2.61969325,9.33121139 2.66878861,9.38030675 2.73896458,9.41783727 L2.76331803,9.43021351 L2.81497624,9.45154938 C2.86093048,9.46749377 2.91625929,9.47895372 2.9967892,9.48671169 L3.10653452,9.4942944 L3.24655029,9.49862368 L3.4229139,9.5 L8.67019122,9.49966218 L8.82762124,9.49684694 L8.95174211,9.4909285 C9.0612342,9.48335832 9.12987867,9.47068264 9.18502376,9.45154938 L9.23668197,9.43021351 C9.24487934,9.42628208 9.25295495,9.42215875 9.26103542,9.41783727 C9.33121139,9.38030675 9.38030675,9.33121139 9.41783727,9.26103542 L9.43021351,9.23668197 L9.45154938,9.18502376 C9.46749377,9.13906952 9.47895372,9.08374071 9.48671169,9.0032108 L9.4942944,8.89346548 L9.49862368,8.75344971 L9.5,8.5770861 L9.49966218,3.32980878 L9.49684694,3.17237876 L9.4909285,3.04825789 C9.48335832,2.9387658 9.47068264,2.87012133 9.45154938,2.81497624 L9.43021351,2.76331803 C9.42628208,2.75512066 9.42215875,2.74704505 9.41783727,2.73896458 C9.38030675,2.66878861 9.33121139,2.61969325 9.26103542,2.58216273 L9.23668197,2.56978649 L9.18502376,2.54845062 C9.13906952,2.53250623 9.08374071,2.52104628 9.0032108,2.51328831 L8.89346548,2.5057056 L8.75344971,2.50137632 L8.67019122,2.50033782 Z" id="icon-other_矩形" />
    <path d="M3.6409713,3 L5.8590287,3 C6.08190838,3 6.16272994,3.0232064 6.24421143,3.06678318 C6.32569291,3.11035995 6.38964005,3.17430709 6.43321682,3.25578857 C6.4767936,3.33727006 6.5,3.41809162 6.5,3.6409713 L6.5,8.3590287 C6.5,8.58190838 6.4767936,8.66272994 6.43321682,8.74421143 C6.38964005,8.82569291 6.32569291,8.88964005 6.24421143,8.93321682 C6.16272994,8.9767936 6.08190838,9 5.8590287,9 L3.6409713,9 C3.41809162,9 3.33727006,8.9767936 3.25578857,8.93321682 C3.17430709,8.88964005 3.11035995,8.82569291 3.06678318,8.74421143 C3.0232064,8.66272994 3,8.58190838 3,8.3590287 L3,3.6409713 C3,3.41809162 3.0232064,3.33727006 3.06678318,3.25578857 C3.11035995,3.17430709 3.17430709,3.11035995 3.25578857,3.06678318 C3.33727006,3.0232064 3.41809162,3 3.6409713,3 Z" id="icon-other_矩形" />
    <path d="M7.6409713,3 L8.3590287,3 C8.58190838,3 8.66272994,3.0232064 8.74421143,3.06678318 C8.82569291,3.11035995 8.88964005,3.17430709 8.93321682,3.25578857 C8.9767936,3.33727006 9,3.41809162 9,3.6409713 L9,8.3590287 C9,8.58190838 8.9767936,8.66272994 8.93321682,8.74421143 C8.88964005,8.82569291 8.82569291,8.88964005 8.74421143,8.93321682 C8.66272994,8.9767936 8.58190838,9 8.3590287,9 L7.6409713,9 C7.41809162,9 7.33727006,8.9767936 7.25578857,8.93321682 C7.17430709,8.88964005 7.11035995,8.82569291 7.06678318,8.74421143 C7.0232064,8.66272994 7,8.58190838 7,8.3590287 L7,3.6409713 C7,3.41809162 7.0232064,3.33727006 7.06678318,3.25578857 C7.11035995,3.17430709 7.17430709,3.11035995 7.25578857,3.06678318 C7.33727006,3.0232064 7.41809162,3 7.6409713,3 Z" id="icon-other_矩形" />
</svg>