<svg viewBox="0 0 24 24" xmlns="http://www.w3.org/2000/svg" xmlns:xlink="http://www.w3.org/1999/xlink" id="icon-fall-down">
    <path d="M22.4910382,3.77995067 C23.0568645,3.93156336 23.3926509,4.51316253 23.2410382,5.07898878 L21.0605858,13.216548 C20.9919427,13.4727274 20.8243442,13.6911461 20.59466,13.8237543 L6.66396028,21.8666476 C5.94652135,22.2808611 5.02913574,22.0350484 4.61492218,21.3176094 C4.20070862,20.6001705 4.44652135,19.6827849 5.16396028,19.2685713 L10.7931254,16.0185713 L8.96637416,14.3986972 C8.64432487,14.1131196 8.17566788,14.0656595 7.80290421,14.2808747 L4.31347934,16.2954951 C3.71561356,16.6406731 2.95112555,16.4358292 2.60594758,15.8379634 C2.26076961,15.2400976 2.46561356,14.4756096 3.06347934,14.1304316 L7.54055135,11.5455929 C7.8513305,11.3661645 8.23442537,11.3670174 8.5444025,11.5478278 L11.0238991,12.9941244 C11.3338763,13.1749348 11.7169711,13.1757877 12.0277503,12.9963593 L13.257227,12.2865205 L10.257227,7.09036811 C9.98108465,6.61207549 10.1449598,6.00048508 10.6232524,5.72434271 C11.1015451,5.44820033 11.7131355,5.61207549 11.9892778,6.09036811 L14.0750643,9.70305619 C14.3402808,10.1624246 14.7771181,10.4976217 15.289477,10.6349078 L18.3044409,11.442765 C18.837907,11.5857068 19.386244,11.2691243 19.5291858,10.7356582 L21.1920001,4.52995067 C21.3436128,3.96412442 21.925212,3.62833799 22.4910382,3.77995067 Z M17.5,17 C17.7761424,17 18,17.2238576 18,17.5 L18,21.5 C18,21.7761424 17.7761424,22 17.5,22 C17.2238576,22 17,21.7761424 17,21.5 L17,17.5 C17,17.2238576 17.2238576,17 17.5,17 Z M15.5,18 C15.7761424,18 16,18.2238576 16,18.5 L16,19.5 C16,19.7761424 15.7761424,20 15.5,20 C15.2238576,20 15,19.7761424 15,19.5 L15,18.5 C15,18.2238576 15.2238576,18 15.5,18 Z M21.5,15 C21.7761424,15 22,15.2238576 22,15.5 L22,17.5 C22,17.7761424 21.7761424,18 21.5,18 C21.2238576,18 21,17.7761424 21,17.5 L21,15.5 C21,15.2238576 21.2238576,15 21.5,15 Z M19.1854303,6.55446973 C19.8757862,7.75020128 19.4660983,9.2791773 18.2703667,9.96953323 C17.0746352,10.6598892 15.5456592,10.2502013 14.8553032,9.05446973 C14.1649473,7.85873817 14.5746352,6.32976215 15.7703667,5.63940622 C16.9660983,4.94905028 18.4950743,5.35873817 19.1854303,6.55446973 Z M4.5,8 L4.5,9.5 L3,9.5 L3,8 L4.5,8 Z M4.5,2 L4.5,7 L3,7 L3,2 L4.5,2 Z" id="icon-fall-down_people" />
</svg>