<svg viewBox="0 0 24 24" xmlns="http://www.w3.org/2000/svg" xmlns:xlink="http://www.w3.org/1999/xlink" id="icon-fire">
    <path d="M20,20 L20,22 L4,22 L4,20 L20,20 Z M12.0005324,2.41627634 L12.1030639,2.46247641 C12.1484236,2.48353529 12.1934145,2.50525431 12.2380244,2.52762113 C12.3958033,2.6067075 12.5492793,2.69419444 12.6974091,2.78928421 C12.7334308,2.81240412 12.7694339,2.83617555 12.8051074,2.86039602 L12.9605921,2.97033388 L13.1298076,3.10050193 C13.1830905,3.14332262 13.2354773,3.18721289 13.2869353,3.23214017 C13.3479811,3.28543078 13.4079772,3.34042808 13.4665998,3.39684246 L13.6141691,3.54487908 L13.6744001,3.60897755 L13.7706914,3.71631066 L13.9030987,3.87467795 C13.9080951,3.88090971 13.9130769,3.88715371 13.918044,3.89340987 C13.9632266,3.95032671 14.006972,4.00794308 14.0494776,4.06651759 C14.1310588,4.17894934 14.2080297,4.29483363 14.2801526,4.41394587 L14.3843182,4.5943649 C14.4059802,4.63377393 14.4267899,4.67285388 14.4470918,4.71223831 C14.6351861,5.07710881 14.7797235,5.4682341 14.8737603,5.87861936 C14.9064264,6.02112839 14.9330189,6.1661289 14.9532232,6.31322376 L14.9786866,6.53524811 L14.9945659,6.76480212 L15,7 C15,9.04980825 13.7665196,10.8115217 11.999679,11.583816 C12.612226,11.8515006 13.288771,12 14,12 C15.4966936,12 16.839793,11.3423852 17.7561188,10.3003351 C17.9146301,10.838476 18,11.4092684 18,12 C18,14.2456913 16.7662571,16.2032265 14.939593,17.2317841 C14.5713866,14.8347205 12.4999543,13 10,13 C9.6803973,13 9.36779834,13.0299866 9.06547544,13.0886902 C9.65369328,13.9086455 10,14.9138806 10,16 C10,16.5457351 9.91256816,17.0710495 9.75094769,17.5626829 C7.55107709,16.6737114 6,14.5179925 6,12 C6,9.77748148 7.20841279,7.83720288 9.00405026,6.80035233 C10.6631611,5.8436211 11.6926907,4.20738131 11.9418961,2.44259374 L11.9598213,2.43381033 L12.0005324,2.41627634 Z" id="icon-fire_fire" />
</svg>