<svg viewBox="0 0 24 24" xmlns="http://www.w3.org/2000/svg" xmlns:xlink="http://www.w3.org/1999/xlink" id="icon-fire-smoke">
    <path d="M21,22 L21,23 L11,23 L11,22 L21,22 Z M16.0007368,10.9999184 C16.1196818,11.0514184 16.2350058,11.1095946 16.3462256,11.1739687 L16.5098941,11.2751034 C16.6693688,11.3801118 16.8191694,11.4983389 16.9577199,11.6282165 L16.9134187,11.5874322 C16.949955,11.6204647 16.9857463,11.6542917 17.0207648,11.6888857 L17.0275833,11.6956409 L17.09,11.76 L17.04,11.708 L17.0914022,11.7608069 L17.158,11.833 L17.1598247,11.8348204 L17.172,11.849 L17.2233976,11.9078169 L17.28,11.977 L17.2848317,11.9826475 L17.296,11.998 L17.3411196,12.0553259 L17.3953981,12.1295747 L17.3984747,12.1339157 L17.412,12.154 L17.4394239,12.1931492 L17.4819785,12.2577806 L17.496,12.282 L17.5,12.287 L17.518,12.317 L17.538,12.349 L17.5929921,12.4439718 L17.6008979,12.4583683 L17.615,12.486 L17.639,12.53 L17.643294,12.5386533 L17.687,12.629 L17.7200697,12.699748 L17.7295794,12.7214008 L17.7378423,12.7405687 L17.779,12.842 L17.778,12.842 L17.787,12.864 L17.7997913,12.8965406 L17.831,12.987 L17.832,12.991 L17.844,13.029 L17.851,13.05 L17.8824061,13.1537543 L17.8890789,13.178312 L17.899,13.22 L17.908,13.253 L17.912231,13.2701989 L17.933,13.366 L17.9502588,13.4546558 C17.956138,13.4880254 17.9615112,13.5215672 17.9663702,13.5552732 L17.9671968,13.5610431 L17.974,13.615 L17.979,13.656 L17.9892548,13.758979 L17.9946851,13.8379775 L18,14.0259726 C18,15.379331 17.1776131,16.542471 15.9997973,17.052258 C16.408159,17.2289829 16.8591851,17.3270219 17.3333333,17.3270219 C18.3309618,17.3270219 19.2262284,16.8930037 19.8371052,16.2052324 C19.9431011,16.5602675 20,16.9370643 20,17.3270219 C20,18.8093673 19.1778177,20.1015416 17.9604237,20.7807096 C17.7135382,19.1979012 16.3328687,17.9872317 14.6666667,17.9872317 C14.4529473,17.9872317 14.2439256,18.0071503 14.0435572,18.0456573 C14.435759,18.5870234 14.6666667,19.2507378 14.6666667,19.9678613 C14.6666667,20.3283616 14.6083138,20.6753649 14.5004362,21.000109 C13.0338608,20.4123898 12,18.9892721 12,17.3270219 C12,15.86424 12.8006237,14.5866427 13.9915833,13.9005439 L14.003,13.894 L14,14.013 L14.004,13.893 L14.1812025,13.7865265 C15.183446,13.1420792 15.8042231,12.1176561 15.9612067,11.0175306 L16.0007368,10.9999184 Z M9.5,13 C10.3284271,13 11,13.6715729 11,14.5 C11,15.3284271 10.3284271,16 9.5,16 C8.67157288,16 8,15.3284271 8,14.5 C8,13.6715729 8.67157288,13 9.5,13 Z M5.23673895,7.09795882 C5.76774161,8.85083412 7.14916588,10.2322584 8.90032878,10.7637496 L8.87737216,10.8517282 C8.51030163,12.0937193 7.36098742,13 6,13 C4.34314575,13 3,11.6568542 3,10 C3,8.60690021 3.94955251,7.43558028 5.23673895,7.09795882 Z M10.5,1 C12.9852814,1 15,3.01471863 15,5.5 C15,7.98528137 12.9852814,10 10.5,10 C8.01471863,10 6,7.98528137 6,5.5 C6,3.01471863 8.01471863,1 10.5,1 Z" id="icon-fire-smoke_fire-smoke" />
</svg>