<svg viewBox="0 0 24 24" xmlns="http://www.w3.org/2000/svg" xmlns:xlink="http://www.w3.org/1999/xlink" id="icon-helmet-safety-vest">
    <path d="M9.54753112,9.99952419 C9.74618968,10.9791705 10.5176667,11.7508893 11.4971841,11.9499027 L11.4976186,22 L7.38040082,22 C6.87607755,22 6.45067654,21.6244636 6.38812294,21.1240347 L6.247,19.9995242 L10,20 L10,18 L5.997,17.9995242 L5.54772548,14.4008551 C5.51558274,14.1437132 5.58451753,13.8841348 5.74000336,13.6768203 L8.1976186,10.4 C8.38647298,10.1481942 8.68286129,10 8.9976186,10 L9.54753112,9.99952419 Z M14.9976186,10 C15.2730312,10 15.5343801,10.1134612 15.7219317,10.3105167 L15.7976186,10.4 L18.2552338,13.6768203 C18.3848054,13.8495823 18.454272,14.0586388 18.4552272,14.2723343 L18.4475117,14.4008551 L17.997,17.9995242 L14,18 L14,20 L17.747,19.9995242 L17.6071143,21.1240347 C17.5493725,21.585969 17.1824589,21.9414862 16.7296885,21.9934478 L16.6148364,22 L12.4976186,22 L12.4980531,11.9499027 C13.4775705,11.7508893 14.2490475,10.9791705 14.4477061,9.99952419 L14.9976186,10 Z M12,2 C12.7865874,2 13.5201458,2.22704384 14.1387155,2.61917168 L13.6294095,4.51703709 C13.5579386,4.78377014 13.7162299,5.05793862 13.9829629,5.12940952 C14.220059,5.19293922 14.4630299,5.07492845 14.5642926,4.86058437 L14.5953353,4.77585613 L14.9820025,3.33392249 C15.5736963,3.9952764 15.9486205,4.85464562 15.9951047,5.80035966 L16,6 C16.5522847,6 17,6.44771525 17,7 C17,7.55228475 16.5522847,8 16,8 L8,8 C7.44771525,8 7,7.55228475 7,7 C7,6.44771525 7.44771525,6 8,6 C8,4.97581169 8.38492438,4.04152729 9.01799745,3.33392249 L9.40466465,4.77585613 C9.47613556,5.04258918 9.75030404,5.20088043 10.0170371,5.12940952 C10.2541331,5.06587983 10.4055468,4.84219403 10.3860708,4.60593524 L10.3705905,4.51703709 L9.86128454,2.61917168 C10.4798542,2.22704384 11.2134126,2 12,2 Z" id="icon-helmet-safety-vest_helmet-safety" />
</svg>