<svg viewBox="0 0 24 24" xmlns="http://www.w3.org/2000/svg" xmlns:xlink="http://www.w3.org/1999/xlink" id="icon-helmet-uniform">
    <path d="M9.6347366,10.0007059 C10.10704,10.8442715 10.9894188,11.4117647 12,11.4117647 C13.0105812,11.4117647 13.89296,10.8442715 14.3652634,10.0007059 L15.5133881,10 C16.243577,10 16.9147823,10.4014341 17.2804836,11.0467836 L17.3454123,11.1706065 L18.427788,13.4086853 C18.454927,13.4648019 18.4747085,13.5244087 18.4866097,13.5859306 C18.5552781,13.9409025 18.3534209,14.2869063 18.0281891,14.3957389 L17.9510125,14.4165401 L15.9625392,14.8275294 L16.6895764,21.2116415 C16.7336344,21.5988193 16.4657642,21.9496148 16.0912717,21.9951651 C16.0647945,21.9983856 16.0381576,22 16.0114978,22 L7.98850223,22 C7.611427,22 7.30574712,21.6839657 7.30574712,21.2941176 C7.30574712,21.2665548 7.30730862,21.2390156 7.31042358,21.2116415 L8.03643521,14.8275294 L6.04898747,14.4165401 C5.67923479,14.3400846 5.43943977,13.968208 5.51339031,13.5859306 C5.52529154,13.5244087 5.54507304,13.4648019 5.57221204,13.4086853 L6.65458768,11.1706065 C7.00154746,10.4531815 7.71078619,10 8.48661186,10 L9.6347366,10.0007059 Z M15,13 L13,13 L13,15 L15,15 L15,13 Z M12,2 C12.7865874,2 13.5201458,2.22704384 14.1387155,2.61917168 L13.6294095,4.51703709 C13.5579386,4.78377014 13.7162299,5.05793862 13.9829629,5.12940952 C14.220059,5.19293922 14.4630299,5.07492845 14.5642926,4.86058437 L14.5953353,4.77585613 L14.9820025,3.33392249 C15.5736963,3.9952764 15.9486205,4.85464562 15.9951047,5.80035966 L16,6 C16.5522847,6 17,6.44771525 17,7 C17,7.55228475 16.5522847,8 16,8 L8,8 C7.44771525,8 7,7.55228475 7,7 C7,6.44771525 7.44771525,6 8,6 C8,4.97581169 8.38492438,4.04152729 9.01799745,3.33392249 L9.40466465,4.77585613 C9.47613556,5.04258918 9.75030404,5.20088043 10.0170371,5.12940952 C10.2541331,5.06587983 10.4055468,4.84219403 10.3860708,4.60593524 L10.3705905,4.51703709 L9.86128454,2.61917168 C10.4798542,2.22704384 11.2134126,2 12,2 Z" id="icon-helmet-uniform_形状结合" />
</svg>