<svg viewBox="0 0 24 24" xmlns="http://www.w3.org/2000/svg" xmlns:xlink="http://www.w3.org/1999/xlink" id="icon-helmet">
    <path d="M20,16 C21.1045695,16 22,16.8954305 22,18 C22,19.1045695 21.1045695,20 20,20 L4,20 C2.8954305,20 2,19.1045695 2,18 C2,16.8954305 2.8954305,16 4,16 L20,16 Z M15.4166458,4.76421103 C18.1258701,6.04572398 20,8.80399875 20,12 L20,15 L4,15 L4,12 C4,8.82082805 5.85444448,6.07478481 8.54062567,4.78457805 L10.1026334,9.47017787 L10.1635026,9.6297595 C10.3879717,10.1503657 10.8246263,10.5541162 11.3675445,10.7350889 C11.8914878,10.9097367 12.4366194,10.8554806 12.8944272,10.6265767 C13.3013674,10.4231066 13.639311,10.0816432 13.8320463,9.64029227 L13.8973666,9.47017787 L15.4166458,4.76421103 Z M13.6125741,3 C14.1648589,3 14.6125741,3.44771525 14.6125741,4 C14.6125741,4.1074821 14.5952462,4.2142613 14.5612574,4.31622777 L12.9486833,9.15395011 C12.7740355,9.67789342 12.2077156,9.96105341 11.6837722,9.78640564 C11.3851672,9.68687064 11.1508517,9.4525551 11.0513167,9.15395011 L9.43874259,4.31622777 C9.26409482,3.79228445 9.5472548,3.22596447 10.0711981,3.0513167 C10.1731646,3.01732788 10.2799438,3 10.3874259,3 L13.6125741,3 Z" id="icon-helmet_helmet" />
</svg>