<svg viewBox="0 0 24 24" xmlns="http://www.w3.org/2000/svg" xmlns:xlink="http://www.w3.org/1999/xlink" id="icon-indoor-oil">
    <path d="M12,7.50155281 L20,9.50155281 L20,20.5015528 L4,20.5015528 L4,9.50155281 L12,7.50155281 Z M10.5,11.5015528 C8.5,13.7303166 7.5,15.3969833 7.5,16.5015528 C7.5,18.1584071 8.84314575,19.5015528 10.5,19.5015528 C12.1568542,19.5015528 13.5,18.1584071 13.5,16.5015528 C13.5,15.3969833 12.5,13.7303166 10.5,11.5015528 Z M14.5,11.5015528 C13.874096,12.0947316 13.3951004,12.6298183 13.0647836,13.106639 C13.9895176,14.4439489 14.441796,15.5271582 14.4947186,16.3421375 L14.5,16.5015528 L14.6492623,16.4960671 C15.6841222,16.4197179 16.5,15.5559146 16.5,14.5015528 C16.5,13.7651731 15.8333333,12.7651731 14.5,11.5015528 Z M12,4.44 L22,6.94 L22,8.94 L12,6.44 L2,8.94 L2,6.94 L12,4.44 Z" id="icon-indoor-oil_oil" />
</svg>