<svg viewBox="0 0 24 24" xmlns="http://www.w3.org/2000/svg" xmlns:xlink="http://www.w3.org/1999/xlink" id="icon-phone-call">
    <path d="M16,3 C16.5522847,3 17,3.44771525 17,4 L17,20 C17,20.5522847 16.5522847,21 16,21 L8,21 C7.44771525,21 7,20.5522847 7,20 L7,4 C7,3.44771525 7.44771525,3 8,3 L16,3 Z M3.81801948,8.1109127 C4.01328163,8.30617485 4.01328163,8.62275734 3.81801948,8.81801948 C2.06066017,10.5753788 2.06066017,13.4246212 3.81801948,15.1819805 C4.01328163,15.3772427 4.01328163,15.6938252 3.81801948,15.8890873 C3.62275734,16.0843494 3.30617485,16.0843494 3.1109127,15.8890873 C0.963029099,13.7412037 0.963029099,10.2587963 3.1109127,8.1109127 C3.30617485,7.91565056 3.62275734,7.91565056 3.81801948,8.1109127 Z M20.8890873,8.1109127 C23.0369709,10.2587963 23.0369709,13.7412037 20.8890873,15.8890873 C20.6938252,16.0843494 20.3772427,16.0843494 20.1819805,15.8890873 C19.9867184,15.6938252 19.9867184,15.3772427 20.1819805,15.1819805 C21.9393398,13.4246212 21.9393398,10.5753788 20.1819805,8.81801948 C19.9867184,8.62275734 19.9867184,8.30617485 20.1819805,8.1109127 C20.3772427,7.91565056 20.6938252,7.91565056 20.8890873,8.1109127 Z M15.5,9 L13.5,9 C13.5,9.90340837 13.2604071,10.7508568 12.8412973,11.4822692 L13.7100417,11.9778767 C13.1780467,12.9066419 12.4048562,13.679546 11.4758661,14.2111928 L10.9802632,13.3424462 C10.2493075,13.7608449 9.40258258,14 8.5,14 L8.5,16 C8.63860211,16 8.77626338,15.9959717 8.9128731,15.9880259 L9.17520332,15.9678549 L9.44188006,15.9371779 L9.80502625,15.8785672 L10.0680549,15.8236944 L10.3608773,15.7499532 L10.4857764,15.7143379 L10.6412735,15.6664336 L10.9436433,15.5616464 L11.1020825,15.500402 L11.2175084,15.452949 L11.4515053,15.3491765 L11.7569411,15.1977543 L12.033034,15.0442948 C13.3345524,14.281883 14.3678358,13.1111083 14.9570186,11.7078362 L15.0013101,11.5998149 C15.0665005,11.436961 15.1257832,11.2709629 15.1788579,11.102168 L15.2713799,10.7811311 L15.342137,10.4851434 L15.3784253,10.3057744 L15.4032139,10.1666742 L15.4491731,9.84785922 L15.4760893,9.58274519 L15.4820516,9.50516434 C15.4883345,9.41692807 15.4929563,9.32899648 15.495941,9.24064975 L15.5,9 Z M5.23223305,9.52512627 C5.42749519,9.72038841 5.42749519,10.0369709 5.23223305,10.232233 C4.25592232,11.2085438 4.25592232,12.7914562 5.23223305,13.767767 C5.42749519,13.9630291 5.42749519,14.2796116 5.23223305,14.4748737 C5.0369709,14.6701359 4.72038841,14.6701359 4.52512627,14.4748737 C3.15829124,13.1080387 3.15829124,10.8919613 4.52512627,9.52512627 C4.72038841,9.32986412 5.0369709,9.32986412 5.23223305,9.52512627 Z M19.4748737,9.52512627 C20.8417088,10.8919613 20.8417088,13.1080387 19.4748737,14.4748737 C19.2796116,14.6701359 18.9630291,14.6701359 18.767767,14.4748737 C18.5725048,14.2796116 18.5725048,13.9630291 18.767767,13.767767 C19.7440777,12.7914562 19.7440777,11.2085438 18.767767,10.232233 C18.5725048,10.0369709 18.5725048,9.72038841 18.767767,9.52512627 C18.9630291,9.32986412 19.2796116,9.32986412 19.4748737,9.52512627 Z M14.5,4 L9.5,4 C9.22385763,4 9,4.22385763 9,4.5 C9,4.74545989 9.17687516,4.94960837 9.41012437,4.99194433 L9.5,5 L14.5,5 C14.7761424,5 15,4.77614237 15,4.5 C15,4.22385763 14.7761424,4 14.5,4 Z" id="icon-phone-call_phone" />
</svg>