<svg viewBox="0 0 24 24" xmlns="http://www.w3.org/2000/svg" xmlns:xlink="http://www.w3.org/1999/xlink" id="icon-tram-car">
    <path d="M12.5,1 L12.5,23 L11.5,23 L11.5,1 L12.5,1 Z M10,13 L10,18 L5,18 L5,20 C5,20.5522847 4.55228475,21 4,21 L3,21 C2.44771525,21 2,20.5522847 2,20 L2,13 L10,13 Z M19,8 C20.6568542,8 22,9.34314575 22,11 L22,14 C22,14.5522847 21.5522847,15 21,15 L20,15 L20,20 C20,20.5522847 19.5522847,21 19,21 L17,21 C16.4477153,21 16,20.5522847 16,20 L16,15 L15,15 C14.4477153,15 14,14.5522847 14,14 L14,11 C14,9.34314575 15.3431458,8 17,8 L19,8 Z M4.5,14 C3.67157288,14 3,14.6715729 3,15.5 C3,16.3284271 3.67157288,17 4.5,17 C5.32842712,17 6,16.3284271 6,15.5 C6,14.6715729 5.32842712,14 4.5,14 Z M10,4 L10,12 L2,12 L2,9.27698396 C2,9.09574002 2.04925783,8.91790361 2.14250707,8.76248821 L4.41739491,4.97100849 C4.7788414,4.36859767 5.42985505,4 6.13238076,4 L10,4 Z M18,3 C19.1045695,3 20,3.8954305 20,5 C20,6.1045695 19.1045695,7 18,7 C16.8954305,7 16,6.1045695 16,5 C16,3.8954305 16.8954305,3 18,3 Z" id="icon-tram-car_tram-car" />
</svg>