<svg xmlns="http://www.w3.org/2000/svg" viewBox="0 0 48 48" id="icon-pre-scheduling"><path d="m32 20 .15.005a2 2 0 0 1 0 3.99L32 24a8 8 0 1 0 6.892 3.936l-2.65 2.65a2.004 2.004 0 0 1-.398.309 4 4 0 1 1-2.739-2.74c.084-.141.187-.275.31-.398l4.242-4.242.127-.117a2 2 0 0 1 2.574 0l.127.117h.001A11.962 11.962 0 0 1 44 32c0 6.627-5.373 12-12 12s-12-5.373-12-12 5.373-12 12-12ZM26 3a2 2 0 0 1 2 2h4a4 4 0 0 1 4 4v7a2 2 0 0 1-3.995.15L32 16V9H12v27h4a2 2 0 0 1 .15 3.995L16 40h-4a4 4 0 0 1-4-4V9a4 4 0 0 1 4-4h4a2 2 0 0 1 2-2h8Zm-7 15a2 2 0 1 1 0 4h-2a2 2 0 1 1 0-4h2Zm8-6a2 2 0 1 1 0 4H17a2 2 0 1 1 0-4h10Z" fill-rule="evenodd" /></svg>