<svg viewBox="0 0 16 16" xmlns="http://www.w3.org/2000/svg" xmlns:xlink="http://www.w3.org/1999/xlink" id="icon-app-id">
    <path d="M13.1453716,2 C13.4425445,2 13.5503066,2.03094187 13.6589486,2.08904423 C13.7675905,2.1471466 13.8528534,2.23240946 13.9109558,2.34105143 C13.9690581,2.44969341 14,2.55745549 14,2.8546284 L14,13.1453716 C14,13.4425445 13.9690581,13.5503066 13.9109558,13.6589486 C13.8528534,13.7675905 13.7675905,13.8528534 13.6589486,13.9109558 C13.5503066,13.9690581 13.4425445,14 13.1453716,14 L2.8546284,14 C2.55745549,14 2.44969341,13.9690581 2.34105143,13.9109558 C2.23240946,13.8528534 2.1471466,13.7675905 2.08904423,13.6589486 C2.03094187,13.5503066 2,13.4425445 2,13.1453716 L2,2.8546284 C2,2.55745549 2.03094187,2.44969341 2.08904423,2.34105143 C2.1471466,2.23240946 2.23240946,2.1471466 2.34105143,2.08904423 C2.44969341,2.03094187 2.55745549,2 2.8546284,2 L13.1453716,2 Z M9,4.66666667 L7,4.66666667 L4.33333333,11.3333333 L6.33333333,11.3333333 L6.86633333,9.99966667 L9.13233333,9.99966667 L8.59933333,8.66666667 L7.39933333,8.66666667 L9,4.66666667 Z M9.33266667,5.5 L8.66666667,7.167 L10.3333333,11.3333333 L11.6666667,11.3333333 L9.33266667,5.5 Z" id="icon-app-id_形状结合" />
</svg>