<svg class="icon" viewBox="0 0 1024 1024" xmlns="http://www.w3.org/2000/svg" xmlns:xlink="http://www.w3.org/1999/xlink" id="icon-all-line"><defs><style type="text/css"></style></defs><path d="M426.666667 554.666667a42.666667 42.666667 0 0 1 42.666666 42.666666v256a42.666667 42.666667 0 0 1-42.666666 42.666667H170.666667a42.666667 42.666667 0 0 1-42.666667-42.666667v-256a42.666667 42.666667 0 0 1 42.666667-42.666666h256z m426.666666 0a42.666667 42.666667 0 0 1 42.666667 42.666666v256a42.666667 42.666667 0 0 1-42.666667 42.666667h-256a42.666667 42.666667 0 0 1-42.666666-42.666667v-256a42.666667 42.666667 0 0 1 42.666666-42.666666h256zM384 640H213.333333v170.666667h170.666667v-170.666667z m426.666667 0h-170.666667v170.666667h170.666667v-170.666667zM426.666667 128a42.666667 42.666667 0 0 1 42.666666 42.666667v256a42.666667 42.666667 0 0 1-42.666666 42.666666H170.666667a42.666667 42.666667 0 0 1-42.666667-42.666666V170.666667a42.666667 42.666667 0 0 1 42.666667-42.666667h256z m426.666666 0a42.666667 42.666667 0 0 1 42.666667 42.666667v256a42.666667 42.666667 0 0 1-42.666667 42.666666h-256a42.666667 42.666667 0 0 1-42.666666-42.666666V170.666667a42.666667 42.666667 0 0 1 42.666666-42.666667h256zM384 213.333333H213.333333v170.666667h170.666667V213.333333z m426.666667 0h-170.666667v170.666667h170.666667V213.333333z" p-id="5188" /></svg>