<svg xmlns="http://www.w3.org/2000/svg" viewBox="0 0 16 16" class="design-iconfont" id="icon-data-analys-line">
    <path d="M12.6666667,2 C13.4030463,2 14,2.59695367 14,3.33333333 L14,12.6666667 C14,13.4030463 13.4030463,14 12.6666667,14 L3.33333333,14 C2.59695367,14 2,13.4030463 2,12.6666667 L2,3.33333333 C2,2.59695367 2.59695367,2 3.33333333,2 L12.6666667,2 Z M12.6666667,3.33333333 L3.33333333,3.33333333 L3.33333333,12.6666667 L12.6666667,12.6666667 L12.6666667,3.33333333 Z M9.33333333,10 L9.33333333,11.3333333 L4.66666667,11.3333333 L4.66666667,10 L9.33333333,10 Z M7.33333333,7.33333333 L7.33333333,8.66666667 L4.66666667,8.66666667 L4.66666667,7.33333333 L7.33333333,7.33333333 Z M11.3333333,4.66666667 L11.3333333,6 L4.66666667,6 L4.66666667,4.66666667 L11.3333333,4.66666667 Z" />
</svg>