<svg class="icon" viewBox="0 0 1024 1024" xmlns="http://www.w3.org/2000/svg" xmlns:xlink="http://www.w3.org/1999/xlink" id="icon-part-video-fill"><defs><style type="text/css"></style></defs><path d="M938.666667 426.666667v384a42.666667 42.666667 0 0 1-42.666667 42.666666H128a42.666667 42.666667 0 0 1-42.666667-42.666666v-384h853.333334z m-469.333334 111.701333a42.666667 42.666667 0 0 0-42.666666 42.666667v117.930666a42.666667 42.666667 0 0 0 61.738666 38.144l117.930667-58.965333a42.666667 42.666667 0 0 0 0-76.288l-117.930667-58.965333a42.666667 42.666667 0 0 0-19.072-4.522667zM896 170.666667a42.666667 42.666667 0 0 1 42.666667 42.666666v128H85.333333V213.333333a42.666667 42.666667 0 0 1 42.666667-42.666666h768zM213.333333 213.333333H128l42.666667 85.333334h85.333333L213.333333 213.333333z m213.333334 0H341.333333l42.666667 85.333334h85.333333l-42.666666-85.333334z m213.333333 0h-85.333333l42.666666 85.333334h85.333334l-42.666667-85.333334z m213.333333 0h-85.333333l42.666667 85.333334h85.333333l-42.666667-85.333334z" p-id="7117" /></svg>