<svg class="icon" viewBox="0 0 1024 1024" xmlns="http://www.w3.org/2000/svg" xmlns:xlink="http://www.w3.org/1999/xlink" id="icon-role-line"><defs><style type="text/css"></style></defs><path d="M512 640v85.333333h-85.333333a213.333333 213.333333 0 0 0-213.12 204.074667L213.333333 938.666667H128a298.666667 298.666667 0 0 1 298.666667-298.666667h85.333333z m213.333333-42.666667l60.16 87.808 102.144 30.122667-64.896 84.394667 2.901334 106.410666L725.333333 870.4l-100.309333 35.669333 2.901333-106.410666-64.896-84.394667 102.101334-30.122667L725.333333 597.333333zM512 85.333333a256 256 0 1 1 0 512 256 256 0 0 1 0-512z m0 85.333334a170.666667 170.666667 0 1 0 0 341.333333 170.666667 170.666667 0 0 0 0-341.333333z" p-id="5444" /></svg>