<svg class="icon" viewBox="0 0 1024 1024" xmlns="http://www.w3.org/2000/svg" xmlns:xlink="http://www.w3.org/1999/xlink" id="icon-video-line"><defs><style type="text/css"></style></defs><path d="M725.333333 213.333333a42.666667 42.666667 0 0 1 42.666667 42.666667v512a42.666667 42.666667 0 0 1-42.666667 42.666667H128a42.666667 42.666667 0 0 1-42.666667-42.666667V256a42.666667 42.666667 0 0 1 42.666667-42.666667h597.333333z m-42.666666 85.333334H170.666667v426.666666h512V298.666667zM362.666667 400.341333a21.333333 21.333333 0 0 1 10.965333 3.029334l150.528 90.325333a21.333333 21.333333 0 0 1 0 36.608l-150.528 90.325333a21.333333 21.333333 0 0 1-32.298667-18.346666V421.717333a21.333333 21.333333 0 0 1 21.333334-21.333333zM810.666667 384l128-42.666667v341.333334l-128-42.666667V384z" p-id="7677" /></svg>