<svg class="icon" viewBox="0 0 1024 1024" xmlns="http://www.w3.org/2000/svg" xmlns:xlink="http://www.w3.org/1999/xlink" id="icon-webcam-line"><defs><style type="text/css"></style></defs><path d="M768.298667 563.541333A128 128 0 0 0 896 682.666667v128a256.128 256.128 0 0 1-244.48-179.754667l116.778667-67.413333zM256.725333 324.266667l42.666667 73.898666-100.48 58.026667 183.466667 189.653333 45.013333-26.026666 42.666667 73.941333-102.741334 59.306667-305.706666-316.16L256.725333 324.266667z m498.944-244.565334l2.730667 4.181334 170.666667 295.594666a42.666667 42.666667 0 0 1-11.434667 55.552l-4.181333 2.730667-406.442667 234.666667-213.333333-369.493334 406.442666-234.666666a42.666667 42.666667 0 0 1 55.552 11.434666z m-49.834666 83.797334l-295.594667 170.666666 128 221.696 295.594667-170.666666-128-221.696z" p-id="5008" /></svg>