<svg class="icon" viewBox="0 0 1024 1024" xmlns="http://www.w3.org/2000/svg" xmlns:xlink="http://www.w3.org/1999/xlink" id="icon-delete-line"><defs><style type="text/css"></style></defs><path d="M341.333333 341.333333v512h341.333334V341.333333h85.333333v554.666667a42.666667 42.666667 0 0 1-42.666667 42.666667H298.666667a42.666667 42.666667 0 0 1-42.666667-42.666667V341.333333h85.333333z m128 85.333334v298.666666H384v-298.666666h85.333333z m170.666667 0v298.666666h-85.333333v-298.666666h85.333333z m213.333333-213.333334v85.333334H170.666667V213.333333h682.666666z m-256-128a42.666667 42.666667 0 0 1 0 85.333334h-170.666666a42.666667 42.666667 0 1 1 0-85.333334h170.666666z" p-id="7256" /></svg>