<svg class="icon" viewBox="0 0 1024 1024" xmlns="http://www.w3.org/2000/svg" xmlns:xlink="http://www.w3.org/1999/xlink" id="icon-drag-fill"><defs><style type="text/css"></style></defs><path d="M682.666667 725.333333a42.666667 42.666667 0 0 1 42.666666 42.666667v42.666667a42.666667 42.666667 0 0 1-42.666666 42.666666H341.333333a42.666667 42.666667 0 0 1-42.666666-42.666666v-42.666667a42.666667 42.666667 0 0 1 42.666666-42.666667h341.333334z m0-298.666666a42.666667 42.666667 0 0 1 42.666666 42.666666v85.333334a42.666667 42.666667 0 0 1-42.666666 42.666666H341.333333a42.666667 42.666667 0 0 1-42.666666-42.666666v-85.333334a42.666667 42.666667 0 0 1 42.666666-42.666666h341.333334z m0-256a42.666667 42.666667 0 0 1 42.666666 42.666666v42.666667a42.666667 42.666667 0 0 1-42.666666 42.666667H341.333333a42.666667 42.666667 0 0 1-42.666666-42.666667V213.333333a42.666667 42.666667 0 0 1 42.666666-42.666666h341.333334z" p-id="5839" /></svg>