<svg class="icon" viewBox="0 0 1024 1024" xmlns="http://www.w3.org/2000/svg" xmlns:xlink="http://www.w3.org/1999/xlink" id="icon-face-id-line"><defs><style type="text/css"></style></defs><path d="M512 85.333333a433.152 433.152 0 0 1 48.128 2.688l10.922667 1.365334a426.069333 426.069333 0 0 1 21.12 3.456l1.792 0.341333a423.978667 423.978667 0 0 1 41.472 10.24l4.096 1.28a423.381333 423.381333 0 0 1 11.434666 3.754667l6.058667 2.133333a423.68 423.68 0 0 1 15.829333 6.101333l2.346667 0.938667 7.082667 3.029333 5.845333 2.56a424.106667 424.106667 0 0 1 13.952 6.698667l6.186667 3.157333 4.906666 2.56 5.674667 3.114667 3.413333 1.92a426.410667 426.410667 0 0 1 30.293334 18.901333l2.986666 2.090667 6.144 4.309333 3.157334 2.304 6.186666 4.693334a427.648 427.648 0 0 1 41.301334 35.968l3.754666 3.797333a430.08 430.08 0 0 1 14.464 15.36l2.133334 2.474667 2.986666 3.413333a429.013333 429.013333 0 0 1 56.362667 83.882667 424.192 424.192 0 0 1 24.149333 57.130666l0.213334 0.554667A423.296 423.296 0 0 1 938.666667 512c0 235.648-191.018667 426.666667-426.666667 426.666667-214.016 0-391.253333-157.610667-421.973333-363.093334l-0.64-4.736-0.682667-5.034666-0.597333-5.12A404.992 404.992 0 0 1 85.333333 512C85.333333 276.352 276.352 85.333333 512 85.333333z m26.026667 219.648a815.402667 815.402667 0 0 1-139.904 132.48c17.237333 11.434667 28.544 31.018667 28.544 53.205334v85.333333a64 64 0 0 1-128 0v-75.221333c-39.850667 21.504-81.706667 39.722667-125.226667 54.4a341.333333 341.333333 0 1 0 669.098667-128.64L853.333333 426.666667a467.626667 467.626667 0 0 1-315.306666-121.685334zM661.333333 426.666667a64 64 0 0 1 64 64v85.333333a64 64 0 0 1-128 0v-85.333333a64 64 0 0 1 64-64z" p-id="5671" /></svg>