<svg class="icon" viewBox="0 0 1024 1024" xmlns="http://www.w3.org/2000/svg" xmlns:xlink="http://www.w3.org/1999/xlink" id="icon-info-fill"><defs><style type="text/css"></style></defs><path d="M512 0c282.752 0 512 229.248 512 512s-229.248 512-512 512S0 794.752 0 512 229.248 0 512 0z m85.333333 384h-170.666666v42.666667l2.602666 0.085333 2.645334 0.298667a36.992 36.992 0 0 1 31.402666 41.813333l-31.402666 219.818667a42.666667 42.666667 0 0 1-42.24 36.650666H384v42.666667h213.333333v-42.666667l-2.346666-0.085333-2.304-0.213333a37.674667 37.674667 0 0 1-32.725334-42.026667L597.333333 384z m-64-170.666667a64 64 0 1 0 0 128 64 64 0 0 0 0-128z" p-id="5521" /></svg>