<svg class="icon" viewBox="0 0 1024 1024" xmlns="http://www.w3.org/2000/svg" xmlns:xlink="http://www.w3.org/1999/xlink" id="icon-list-todo-line"><defs><style type="text/css"></style></defs><path d="M341.333333 597.333333a42.666667 42.666667 0 0 1 42.666667 42.666667v170.666667a42.666667 42.666667 0 0 1-42.666667 42.666666H170.666667a42.666667 42.666667 0 0 1-42.666667-42.666666v-170.666667a42.666667 42.666667 0 0 1 42.666667-42.666667h170.666666z m554.666667 170.666667v85.333333H426.666667v-85.333333h469.333333zM298.666667 682.666667H213.333333v85.333333h85.333334v-85.333333z m298.666666-42.666667v85.333333h-170.666666v-85.333333h170.666666zM341.333333 170.666667a42.666667 42.666667 0 0 1 42.666667 42.666666v170.666667a42.666667 42.666667 0 0 1-42.666667 42.666667H170.666667a42.666667 42.666667 0 0 1-42.666667-42.666667V213.333333a42.666667 42.666667 0 0 1 42.666667-42.666666h170.666666z m554.666667 170.666666v85.333334H426.666667V341.333333h469.333333zM298.666667 256H213.333333v85.333333h85.333334V256z m298.666666-42.666667v85.333334h-170.666666V213.333333h170.666666z" p-id="6230" /></svg>