<svg viewBox="0 0 20 20" xmlns="http://www.w3.org/2000/svg" xmlns:xlink="http://www.w3.org/1999/xlink" id="icon-exit-full-screen">
    <path d="M17.5,3.33333333 C17.9602373,3.33333333 18.3333333,3.70642938 18.3333333,4.16666667 L18.3333333,15.8333333 C18.3333333,16.2935706 17.9602373,16.6666667 17.5,16.6666667 L2.5,16.6666667 C2.03976271,16.6666667 1.66666667,16.2935706 1.66666667,15.8333333 L1.66666667,4.16666667 C1.66666667,3.70642938 2.03976271,3.33333333 2.5,3.33333333 L17.5,3.33333333 Z M7.5,10.8333333 L3.33333333,10.8333333 L3.33333333,12.5 L5.83333333,12.5 L5.83333333,15 L7.5,15 L7.5,10.8333333 Z M16.6666667,10.8333333 L12.5,10.8333333 L12.5,15 L14.1666667,15 L14.1666667,12.5 L16.6666667,12.5 L16.6666667,10.8333333 Z M7.5,5 L5.83333333,5 L5.83333333,7.5 L3.33333333,7.5 L3.33333333,9.16666667 L7.5,9.16666667 L7.5,5 Z M14.1666667,5 L12.5,5 L12.5,9.16666667 L16.6666667,9.16666667 L16.6666667,7.5 L14.1666667,7.5 L14.1666667,5 Z" id="icon-exit-full-screen_形状结合" />
</svg>