<svg xmlns="http://www.w3.org/2000/svg" viewBox="0 0 20 20" class="design-iconfont" id="icon-alarm-push">
  <path d="M11.25,10.3060197 C11.3233094,10.3060197 11.3953212,10.3253614 11.4587651,10.3620921 L18.1271553,14.222739 C18.326306,14.3380368 18.3942823,14.5929477 18.2789845,14.7920984 C18.242508,14.8551032 18.1901601,14.9074512 18.1271553,14.9439276 L11.4587651,18.8045746 C11.2596144,18.9198724 11.0047035,18.8518961 10.8894057,18.6527454 C10.852675,18.5893015 10.8333333,18.5172897 10.8333333,18.4439803 L10.8333333,15.8333333 L15.4166667,14.5833333 L10.8333333,14.5833333 L10.8333333,10.7226864 C10.8333333,10.4925677 11.0198814,10.3060197 11.25,10.3060197 Z M4.58333333,7.91666667 L4.583,15.8326667 L9.16666667,15.8333333 L9.16666667,17.5 L2.08333333,17.5 L1.97880177,17.4935072 C1.56790432,17.442085 1.25,17.0915011 1.25,16.6666667 C1.25,16.2418322 1.56790432,15.8912484 1.97880177,15.8398262 L2.08333333,15.8333333 L2.916,15.8326667 L2.91666667,7.91666667 L4.58333333,7.91666667 Z M8.33333333,5.41666667 L8.33333333,14.5833333 L5.83333333,14.5833333 L5.83333333,7.91666667 C5.83333333,6.59118327 6.86486927,5.50662799 8.16895765,5.42198435 L8.33333333,5.41666667 Z M15.4166667,7.91666667 L15.4166667,10 C15.4166667,10.4602373 15.0435706,10.8333333 14.5833333,10.8333333 C14.1584989,10.8333333 13.807915,10.515429 13.7564928,10.1045316 L13.75,10 L13.75,7.91666667 L15.4166667,7.91666667 Z M9.16666667,1.66666667 C12.5747529,1.66666667 15.3457209,4.39449432 15.4153259,7.78590494 L15.4166667,7.91666667 L13.75,7.91666667 L13.7484552,7.79649688 C13.6847355,5.32073482 11.6577923,3.33333333 9.16666667,3.33333333 C6.67554101,3.33333333 4.64859784,5.32073482 4.58487809,7.79649688 L4.58333333,7.91666667 L2.91666667,7.91666667 C2.91666667,4.46488698 5.71488698,1.66666667 9.16666667,1.66666667 Z" fill="#F5F9FF" fill-rule="evenodd" />
</svg>