<svg class="icon" viewBox="0 0 1024 1024" xmlns="http://www.w3.org/2000/svg" xmlns:xlink="http://www.w3.org/1999/xlink" id="icon-bingo-line"><defs><style type="text/css"></style></defs><path d="M512 0c282.752 0 512 229.248 512 512s-229.248 512-512 512S0 794.752 0 512 229.248 0 512 0z m0 85.333333C276.352 85.333333 85.333333 276.352 85.333333 512s191.018667 426.666667 426.666667 426.666667 426.666667-191.018667 426.666667-426.666667S747.648 85.333333 512 85.333333z m219.818667 148.053334l72.362666 45.226666a21.333333 21.333333 0 0 1 6.784 29.397334l-302.72 484.394666a21.333333 21.333333 0 0 1-17.194666 9.984l-83.029334 3.541334a21.333333 21.333333 0 0 1-17.962666-8.533334L217.6 567.466667a21.333333 21.333333 0 0 1 4.266667-29.866667l68.266666-51.2a21.333333 21.333333 0 0 1 29.866667 4.266667l123.178667 164.266666 259.242666-414.762666a21.333333 21.333333 0 0 1 29.397334-6.784z" p-id="7490" /></svg>