<svg viewBox="0 0 24 24" xmlns="http://www.w3.org/2000/svg" xmlns:xlink="http://www.w3.org/1999/xlink" id="icon-callback-output">
    <path d="M19,3 C20.1045695,3 21,3.8954305 21,5 L21,19 C21,20.1045695 20.1045695,21 19,21 L5,21 C3.8954305,21 3,20.1045695 3,19 L3,5 C3,3.8954305 3.8954305,3 5,3 L19,3 Z M18.0104076,10.9393398 L13.8856181,11.5285955 L15.3000673,12.9425733 L10.5857864,17.6568542 L11.2928932,18.363961 L16.0071741,13.6496801 L17.421152,15.0641294 L18.0104076,10.9393398 Z M12.7071068,5.63603897 L7.99282587,10.3503199 L6.57884801,8.93587061 L5.98959236,13.0606602 L10.1143819,12.4714045 L8.69993265,11.0574267 L13.4142136,6.34314575 L12.7071068,5.63603897 Z" id="icon-callback-output_形状结合" />
</svg>