<svg xmlns="http://www.w3.org/2000/svg" viewBox="0 0 48 48" id="icon-output-result"><path d="M43.556 25.686a5 5 0 0 1 .15 6.915l-.15.156-9.9 9.9a8 8 0 1 1-11.313-11.315l7.071-7.07 2.829 2.829-7.071 7.07a4 4 0 1 0 5.657 5.657l9.899-9.9.078-.086a1 1 0 0 0-1.303-1.476l-.102.071-.087.078-9.9 9.9-2.828-2.83 9.9-9.899.156-.15a5 5 0 0 1 6.914.15ZM36 4a4 4 0 0 1 4 4v12a2 2 0 0 1-3.995.15L36 20V8H12v32h4a2 2 0 0 1 .15 3.995L16 44h-4a4 4 0 0 1-4-4V8a4 4 0 0 1 4-4h24ZM22 24a2 2 0 1 1 0 4h-4a2 2 0 1 1 0-4h4Zm8-6a2 2 0 1 1 0 4H18a2 2 0 1 1 0-4h12Zm0-6a2 2 0 1 1 0 4H18a2 2 0 1 1 0-4h12Z" fill-rule="evenodd" /></svg>