<svg class="icon" viewBox="0 0 1024 1024" xmlns="http://www.w3.org/2000/svg" xmlns:xlink="http://www.w3.org/1999/xlink" id="icon-zoom-out"><defs><style type="text/css">@font-face { font-family: feedback-iconfont; src: url("//at.alicdn.com/t/font_1031158_1uhr8ri0pk5.eot?#iefix") format("embedded-opentype"), url("//at.alicdn.com/t/font_1031158_1uhr8ri0pk5.woff2") format("woff2"), url("//at.alicdn.com/t/font_1031158_1uhr8ri0pk5.woff") format("woff"), url("//at.alicdn.com/t/font_1031158_1uhr8ri0pk5.ttf") format("truetype"), url("//at.alicdn.com/t/font_1031158_1uhr8ri0pk5.svg#iconfont") format("svg"); }
</style></defs><path d="M469.333333 85.333333a384 384 0 0 1 300.032 623.701334 18.346667 18.346667 0 0 1 0.768 0.768l150.869334 150.869333a42.666667 42.666667 0 1 1-60.330667 60.330667l-150.869333-150.869334-0.768-0.768A384 384 0 1 1 469.333333 85.333333z m0 85.333334a298.666667 298.666667 0 1 0 0 597.333333 298.666667 298.666667 0 0 0 0-597.333333z m128 256a42.666667 42.666667 0 0 1 0 85.333333H341.333333a42.666667 42.666667 0 0 1 0-85.333333h256z" p-id="5641" /></svg>