<svg viewBox="0 0 16 16" xmlns="http://www.w3.org/2000/svg" xmlns:xlink="http://www.w3.org/1999/xlink" id="icon-license-manage">
    <path d="M9.33333333,4 C9.33333333,5.01777973 9.78948014,5.92902067 10.5084909,6.54043994 L10.6665176,6.66679881 L10.6666667,9.74535599 L12.6666667,8.74535599 L14.6666667,9.74535599 L14.6666667,12 C14.6666667,12.7363797 14.069713,13.3333333 13.3333333,13.3333333 L2.66666667,13.3333333 C1.930287,13.3333333 1.33333333,12.7363797 1.33333333,12 L1.33333333,5.33333333 C1.33333333,4.59695367 1.930287,4 2.66666667,4 L9.33333333,4 Z M13.3333333,10.6666667 L2.66666667,10.6666667 L2.66666667,12 L13.3333333,12 L13.3333333,10.6666667 Z M6.66666667,8 L2.66666667,8 L2.66666667,9.33333333 L6.66666667,9.33333333 L6.66666667,8 Z M14.0006573,7.05568359 L14,8.66666667 L12.6666667,8 L11.3333333,8.66666667 L11.331944,7.05536347 C11.7406185,7.23414368 12.1920591,7.33333333 12.6666667,7.33333333 C13.1409909,7.33333333 13.5921758,7.23426208 14.0006573,7.05568359 Z M12.6666667,1.33333333 C14.139426,1.33333333 15.3333333,2.52724067 15.3333333,4 C15.3333333,5.47275933 14.139426,6.66666667 12.6666667,6.66666667 C11.1939073,6.66666667 10,5.47275933 10,4 C10,2.52724067 11.1939073,1.33333333 12.6666667,1.33333333 Z" id="icon-license-manage_形状结合" />
</svg>