<svg viewBox="0 0 24 24" xmlns="http://www.w3.org/2000/svg" xmlns:xlink="http://www.w3.org/1999/xlink" id="icon-calculate-node">
    <path d="M12.9177999,6.63846951 C13.0500313,6.88089368 12.9607024,7.18461199 12.7182782,7.31684336 C12.475854,7.44907472 12.1721357,7.35974581 12.0399043,7.11732164 L11.5610522,6.23942607 C11.4288208,5.9970019 11.5181498,5.69328358 11.7605739,5.56105221 C12.0029981,5.42882085 12.3067164,5.51814977 12.4389478,5.76057393 L12.9177999,6.63846951 Z M14.3543563,9.27215623 C14.4865877,9.51458039 14.3972588,9.81829871 14.1548346,9.95053008 C13.9124104,10.0827614 13.6086921,9.99343253 13.4764607,9.75100836 L12.9976086,8.87311278 C12.8653772,8.63068862 12.9547062,8.3269703 13.1971303,8.19473893 C13.4395545,8.06250757 13.7432728,8.15183648 13.8755042,8.39426065 L14.3543563,9.27215623 Z M15.7909127,11.9058429 C15.9231441,12.1482671 15.8338151,12.4519854 15.591391,12.5842168 C15.3489668,12.7164482 15.0452485,12.6271192 14.9130171,12.3846951 L14.434165,11.5067995 C14.3019336,11.2643753 14.3912626,10.960657 14.6336867,10.8284257 C14.8761109,10.6961943 15.1798292,10.7855232 15.3120606,11.0279474 L15.7909127,11.9058429 Z M17.2274691,14.5395297 C17.3597005,14.7819538 17.2703715,15.0856722 17.0279474,15.2179035 C16.7855232,15.3501349 16.4818049,15.260806 16.3495735,15.0183818 L15.8707214,14.1404862 C15.73849,13.8980621 15.8278189,13.5943437 16.0702431,13.4621124 C16.3126673,13.329881 16.6163856,13.4192099 16.748617,13.6616341 L17.2274691,14.5395297 Z M17.5299641,17.5 C17.2538217,17.5 17.0299641,17.2761424 17.0299641,17 C17.0299641,16.7238576 17.2538217,16.5 17.5299641,16.5 L18,16.5 L18,17 L17.5610522,17.2394261 L17.3072778,16.7741729 C17.1750464,16.5317488 17.2643753,16.2280305 17.5067995,16.0957991 C17.7492237,15.9635677 18.052942,16.0528966 18.1851734,16.2953208 L18.4389478,16.7605739 C18.6206863,17.0937613 18.3795296,17.5 18,17.5 L17.5299641,17.5 Z M14.5299641,17.5 C14.2538217,17.5 14.0299641,17.2761424 14.0299641,17 C14.0299641,16.7238576 14.2538217,16.5 14.5299641,16.5 L15.5299641,16.5 C15.8061065,16.5 16.0299641,16.7238576 16.0299641,17 C16.0299641,17.2761424 15.8061065,17.5 15.5299641,17.5 L14.5299641,17.5 Z M11.5299641,17.5 C11.2538217,17.5 11.0299641,17.2761424 11.0299641,17 C11.0299641,16.7238576 11.2538217,16.5 11.5299641,16.5 L12.5299641,16.5 C12.8061065,16.5 13.0299641,16.7238576 13.0299641,17 C13.0299641,17.2761424 12.8061065,17.5 12.5299641,17.5 L11.5299641,17.5 Z M8.52996409,17.5 C8.25382171,17.5 8.02996409,17.2761424 8.02996409,17 C8.02996409,16.7238576 8.25382171,16.5 8.52996409,16.5 L9.52996409,16.5 C9.80610646,16.5 10.0299641,16.7238576 10.0299641,17 C10.0299641,17.2761424 9.80610646,17.5 9.52996409,17.5 L8.52996409,17.5 Z M5.78612991,16.3479315 C5.91836128,16.1055073 6.2220796,16.0161784 6.46450376,16.1484098 C6.70692793,16.2806411 6.79625685,16.5843594 6.66402549,16.8267836 L6.43894779,17.2394261 L6,17 L6,16.5 L6.52996409,16.5 C6.80610646,16.5 7.02996409,16.7238576 7.02996409,17 C7.02996409,17.2761424 6.80610646,17.5 6.52996409,17.5 L6,17.5 C5.62047043,17.5 5.37931367,17.0937613 5.56105221,16.7605739 L5.78612991,16.3479315 Z M7.2226863,13.7142448 C7.35491767,13.4718206 7.65863599,13.3824917 7.90106016,13.514723 C8.14348432,13.6469544 8.23281324,13.9506727 8.10058188,14.1930969 L7.62172975,15.0709925 C7.48949838,15.3134166 7.18578006,15.4027456 6.94335589,15.2705142 C6.70093173,15.1382828 6.61160281,14.8345645 6.74383417,14.5921403 L7.2226863,13.7142448 Z M8.6592427,11.080558 C8.79147406,10.8381339 9.09519238,10.748805 9.33761655,10.8810363 C9.58004072,11.0132677 9.66936963,11.316986 9.53713827,11.5594102 L9.05828614,12.4373058 C8.92605477,12.6797299 8.62233646,12.7690588 8.37991229,12.6368275 C8.13748812,12.5045961 8.0481592,12.2008778 8.18039057,11.9584536 L8.6592427,11.080558 Z M10.0957991,8.44687133 C10.2280305,8.20444716 10.5317488,8.11511824 10.7741729,8.24734961 C11.0165971,8.37958097 11.105926,8.68329929 10.9736947,8.92572346 L10.4948425,9.80361903 C10.3626112,10.0460432 10.0588928,10.1353721 9.81646868,10.0031408 C9.57404451,9.87090939 9.48471559,9.56719107 9.61694696,9.3247669 L10.0957991,8.44687133 Z M11.5323555,5.81318461 C11.6645868,5.57076044 11.9683052,5.48143153 12.2107293,5.61366289 C12.4531535,5.74589426 12.5424824,6.04961257 12.4102511,6.29203674 L11.9313989,7.16993232 C11.7991676,7.41235648 11.4954492,7.5016854 11.2530251,7.36945404 C11.0106009,7.23722267 10.921272,6.93350435 11.0535033,6.69108018 L11.5323555,5.81318461 Z" id="icon-calculate-node_路径" />
    <polygon id="icon-calculate-node_多边形" points="12 1 16.330127 3.5 16.330127 8.5 12 11 7.66987298 8.5 7.66987298 3.5" />
    <polygon id="icon-calculate-node_多边形" points="6 12 10.330127 14.5 10.330127 19.5 6 22 1.66987298 19.5 1.66987298 14.5" />
    <path d="M18,12 L22.330127,14.5 L22.330127,19.5 L18,22 L13.669873,19.5 L13.669873,14.5 L18,12 Z M18,13.155 L14.669,15.077 L14.669,18.922 L18,20.844 L21.33,18.922 L21.33,15.077 L18,13.155 Z" id="icon-calculate-node_多边形" />
</svg>