<svg viewBox="0 0 24 24" xmlns="http://www.w3.org/2000/svg" xmlns:xlink="http://www.w3.org/1999/xlink" id="icon-monitor-point">
    <path d="M16.8983435,8.99937371 C18.1952684,10.2699351 19,12.04099 19,14 C19,17.8659932 15.8659932,21 12,21 C8.13400675,21 5,17.8659932 5,14 C5,12.04099 5.80473162,10.2699351 7.10165647,8.99937371 Z M12,18 C14.209139,18 16,16.209139 16,14 C16,11.790861 14.209139,10 12,10 C9.790861,10 8,11.790861 8,14 C8,16.209139 9.790861,18 12,18 Z" id="icon-monitor-point_形状结合" />
    <path d="M3,3 L21,3 L19.7543312,6.11417203 C19.2987411,7.25314717 18.1956149,8 16.9689011,8 L7.03109888,8 C5.80438512,8 4.70125887,7.25314717 4.24566881,6.11417203 L3,3 L3,3 Z" id="icon-monitor-point_矩形" />
    <path d="M12,11 C13.6568542,11 15,12.3431458 15,14 C15,15.6568542 13.6568542,17 12,17 C10.3431458,17 9,15.6568542 9,14 C9,12.3431458 10.3431458,11 12,11 Z M12,12 C10.8954305,12 10,12.8954305 10,14 C10,15.1045695 10.8954305,16 12,16 C13.1045695,16 14,15.1045695 14,14 C14,12.8954305 13.1045695,12 12,12 Z" id="icon-monitor-point_椭圆形" fill-rule="nonzero" />
</svg>