<svg viewBox="0 0 14 14" xmlns="http://www.w3.org/2000/svg" xmlns:xlink="http://www.w3.org/1999/xlink" id="icon-circle-plus">
    <path d="M7,0 C10.8659932,0 14,3.13400675 14,7 C14,10.8659932 10.8659932,14 7,14 C3.13400675,14 0,10.8659932 0,7 C0,3.13400675 3.13400675,0 7,0 Z M7,0.583333333 C3.45617286,0.583333333 0.583333333,3.45617286 0.583333333,7 C0.583333333,10.5438271 3.45617286,13.4166667 7,13.4166667 C10.5438271,13.4166667 13.4166667,10.5438271 13.4166667,7 C13.4166667,3.45617286 10.5438271,0.583333333 7,0.583333333 Z M7.58333333,3.5 L7.583,6.416 L10.5,6.41666667 L10.5,7.58333333 L7.583,7.583 L7.58333333,10.5 L6.41666667,10.5 L6.416,7.583 L3.5,7.58333333 L3.5,6.41666667 L6.416,6.416 L6.41666667,3.5 L7.58333333,3.5 Z" id="icon-circle-plus_形状结合" />
</svg>