<svg class="icon" viewBox="0 0 1024 1024" xmlns="http://www.w3.org/2000/svg" xmlns:xlink="http://www.w3.org/1999/xlink" id="icon-refresh-2-line"><defs><style type="text/css"></style></defs><path d="M298.666667 170.666667v213.333333H213.333333v-37.418667a341.333333 341.333333 0 0 0 288 506.581334L512 853.333333v85.333334C276.352 938.666667 85.333333 747.648 85.333333 512c0-93.952 30.549333-183.125333 85.290667-256H85.333333V170.666667h213.333334z m213.333333-85.333334c235.648 0 426.666667 191.018667 426.666667 426.666667a425.088 425.088 0 0 1-85.333334 256.042667L938.666667 768v85.333333h-213.333334v-213.333333h85.333334l0.042666 37.333333A341.333333 341.333333 0 0 0 522.666667 170.837333L512 170.666667V85.333333z" p-id="7267" /></svg>