<svg class="icon" viewBox="0 0 1024 1024" xmlns="http://www.w3.org/2000/svg" xmlns:xlink="http://www.w3.org/1999/xlink" id="icon-regulator-line"><defs><style type="text/css"></style></defs><path d="M640 554.666667a170.752 170.752 0 0 1 165.504 128.853333l-0.213333-0.853333H938.666667v85.333333h-133.376l-1.834667 6.613333a170.752 170.752 0 0 1-326.912 0l-1.834667-6.570666L85.333333 768v-85.333333h389.376l-0.213333 0.853333A170.752 170.752 0 0 1 640 554.666667z m0 85.333333a85.333333 85.333333 0 1 0 0 170.666667 85.333333 85.333333 0 0 0 0-170.666667zM384 128a170.752 170.752 0 0 1 165.504 128.853333L549.290667 256H938.666667v85.333333h-389.376l-1.834667 6.613334a170.752 170.752 0 0 1-326.912 0l-1.834667-6.570667L85.333333 341.333333V256h133.376l-0.213333 0.853333A170.752 170.752 0 0 1 384 128z m0 85.333333a85.333333 85.333333 0 1 0 0 170.666667 85.333333 85.333333 0 0 0 0-170.666667z" p-id="7869" /></svg>